<svg width="36" height="37" viewBox="0 0 36 37" fill="none" xmlns="http://www.w3.org/2000/svg">
<path d="M18 0.916504C14.4399 0.916504 10.9598 1.97219 7.99974 3.95005C5.03966 5.92792 2.73255 8.73913 1.37018 12.0282C0.00779915 15.3173 -0.348661 18.9365 0.345873 22.4281C1.04041 25.9198 2.75474 29.1271 5.27208 31.6444C7.78943 34.1618 10.9967 35.8761 14.4884 36.5706C17.98 37.2652 21.5992 36.9087 24.8883 35.5463C28.1774 34.184 30.9886 31.8768 32.9665 28.9168C34.9443 25.9567 36 22.4766 36 18.9165C35.9948 14.1442 34.0968 9.56882 30.7222 6.19428C27.3477 2.81975 22.7723 0.921666 18 0.916504ZM18 3.9165C21.4597 3.91374 24.8129 5.11313 27.486 7.3095L6.39301 28.4025C4.59386 26.2063 3.4555 23.5442 3.11043 20.7261C2.76537 17.9081 3.2278 15.05 4.44389 12.4846C5.65998 9.91911 7.57971 7.75182 9.97962 6.23497C12.3795 4.71812 15.1609 3.9141 18 3.9165ZM18 33.9165C14.5403 33.9193 11.1871 32.7199 8.51401 30.5235L29.607 9.4305C31.4062 11.6267 32.5445 14.2888 32.8896 17.1069C33.2346 19.9249 32.7722 22.783 31.5561 25.3484C30.34 27.9139 28.4203 30.0812 26.0204 31.598C23.6205 33.1149 20.8391 33.9189 18 33.9165Z" fill="white"/>
</svg>
