<svg width="307" height="346" viewBox="0 0 307 346" fill="none" xmlns="http://www.w3.org/2000/svg">
<path d="M183.162 206.075C182.097 202.742 154.194 211.501 155.259 214.838C155.259 214.838 158.043 227.449 160.036 241.125C149.418 225.525 137.494 212.501 129.488 211.883C127.43 211.724 125.621 211.714 124.104 211.51C123.232 211.5 122.377 211.275 121.613 210.854C120.85 210.433 120.203 209.831 119.729 209.099C118.463 211.058 106.121 211.573 104.781 209.683C103.655 210.905 102.18 211.748 100.556 212.1C95.1306 213.816 86.8113 213.908 81.5177 219.442L68.0476 233.462C72.0421 242.622 78.1264 250.718 85.813 257.104L94.494 248.341V263.117C107.932 270.912 123.763 273.504 138.984 270.402C139.805 268.287 140.55 266.144 141.218 263.976L145.754 268.615C155.633 265.416 164.577 259.844 171.802 252.385C179.027 244.927 184.312 235.81 187.195 225.834C186.204 219.18 184.858 212.585 183.162 206.075Z" fill="#2A9CF5"/>
<path fill-rule="evenodd" clip-rule="evenodd" d="M285.934 175.391C286.118 175.892 286.464 175.947 286.916 175.997C287.659 176.022 288.363 176.335 288.88 176.869C289.397 177.404 289.685 178.118 289.685 178.862V180.824C289.687 181.202 289.614 181.576 289.47 181.925C289.326 182.274 289.114 182.591 288.846 182.857C288.579 183.125 288.262 183.337 287.913 183.481C287.564 183.626 287.189 183.699 286.811 183.696C286.621 183.694 286.434 183.749 286.277 183.856C286.119 183.963 285.998 184.115 285.93 184.293C285.882 184.421 285.826 184.548 285.771 184.671C285.538 185.201 285.326 185.682 285.788 186.143C286.055 186.41 286.267 186.727 286.411 187.076C286.556 187.425 286.63 187.799 286.63 188.177C286.63 188.555 286.556 188.929 286.411 189.278C286.267 189.626 286.055 189.944 285.788 190.211L284.422 191.603C284.155 191.87 283.838 192.082 283.489 192.227C283.14 192.371 282.766 192.446 282.388 192.446C282.011 192.446 281.637 192.371 281.288 192.227C280.939 192.082 280.622 191.87 280.355 191.603C280.222 191.464 280.05 191.371 279.861 191.335C279.673 191.299 279.478 191.324 279.304 191.404C279.185 191.457 279.063 191.504 278.942 191.551C278.405 191.757 277.909 191.947 277.909 192.6C277.912 192.977 277.839 193.352 277.695 193.701C277.551 194.05 277.338 194.366 277.07 194.632C276.804 194.901 276.487 195.113 276.137 195.257C275.788 195.401 275.414 195.474 275.036 195.472L273.046 195.501C272.668 195.503 272.294 195.43 271.944 195.286C271.595 195.142 271.278 194.93 271.012 194.661C270.473 194.122 270.172 193.391 270.172 192.629C270.176 192.438 270.121 192.251 270.014 192.093C269.907 191.935 269.754 191.814 269.576 191.746C269.457 191.698 269.34 191.648 269.225 191.594C268.706 191.359 268.221 191.138 267.754 191.603C267.487 191.87 267.17 192.082 266.821 192.227C266.472 192.371 266.098 192.446 265.721 192.446C265.343 192.446 264.969 192.371 264.62 192.227C264.271 192.082 263.954 191.87 263.687 191.603L262.294 190.211C262.027 189.944 261.815 189.626 261.671 189.278C261.526 188.929 261.452 188.555 261.452 188.177C261.452 187.799 261.526 187.425 261.671 187.076C261.815 186.727 262.027 186.41 262.294 186.143C262.433 186.01 262.527 185.837 262.562 185.649C262.598 185.46 262.574 185.265 262.493 185.091C262.441 184.971 262.394 184.85 262.347 184.729C262.141 184.192 261.951 183.696 261.298 183.696C260.729 183.7 260.172 183.534 259.698 183.218C259.225 182.902 258.857 182.451 258.643 181.924C258.498 181.575 258.424 181.202 258.426 180.824L258.397 178.862C258.394 178.484 258.467 178.109 258.611 177.76C258.756 177.411 258.968 177.094 259.236 176.827C259.777 176.289 260.51 175.987 261.273 175.988C261.463 175.992 261.65 175.936 261.808 175.829C261.966 175.723 262.087 175.57 262.155 175.391C262.204 175.263 262.26 175.136 262.314 175.013C262.548 174.483 262.759 174.002 262.298 173.541C261.894 173.14 261.619 172.627 261.508 172.069C261.397 171.511 261.455 170.932 261.674 170.407C261.819 170.06 262.03 169.741 262.298 169.476L263.72 168.081C264.26 167.543 264.991 167.241 265.753 167.241C266.516 167.241 267.247 167.543 267.787 168.081C267.917 168.215 268.085 168.305 268.268 168.341C268.451 168.376 268.64 168.355 268.811 168.28C268.93 168.226 269.051 168.181 269.172 168.135C269.71 167.927 270.205 167.738 270.205 167.085C270.203 166.707 270.277 166.334 270.422 165.985C270.565 165.635 270.776 165.318 271.043 165.05C271.31 164.783 271.628 164.572 271.977 164.43C272.326 164.285 272.699 164.213 273.077 164.213H275.039C275.417 164.212 275.791 164.285 276.14 164.429C276.489 164.573 276.806 164.785 277.073 165.052C277.34 165.318 277.552 165.635 277.696 165.984C277.84 166.333 277.914 166.707 277.913 167.085C277.91 167.275 277.965 167.462 278.072 167.62C278.179 167.778 278.332 167.899 278.51 167.967C278.628 168.015 278.745 168.066 278.861 168.119C279.38 168.354 279.865 168.575 280.329 168.11C280.596 167.843 280.914 167.631 281.263 167.486C281.612 167.341 281.986 167.267 282.364 167.267C282.742 167.267 283.116 167.341 283.465 167.486C283.814 167.631 284.131 167.843 284.399 168.11L285.791 169.476C286.194 169.877 286.469 170.389 286.58 170.947C286.691 171.505 286.634 172.083 286.415 172.608C286.27 172.957 286.058 173.274 285.791 173.541C285.334 174.024 285.54 174.487 285.771 175.006C285.827 175.131 285.885 175.259 285.934 175.391ZM269.966 185.93C271.174 186.736 272.593 187.167 274.045 187.167C275.009 187.169 275.965 186.981 276.856 186.613C277.748 186.246 278.558 185.705 279.24 185.023C279.922 184.341 280.462 183.531 280.83 182.639C281.198 181.748 281.386 180.792 281.384 179.828C281.385 178.376 280.955 176.957 280.148 175.75C279.342 174.543 278.195 173.602 276.853 173.047C275.172 172.36 273.295 172.321 271.586 172.937C269.876 173.553 268.456 174.78 267.6 176.383C266.743 177.985 266.511 179.848 266.948 181.611C267.385 183.374 268.461 184.913 269.966 185.93Z" fill="#2A9CF5"/>
<path d="M281.775 253.667H271.088V248.1H281.775V253.667Z" fill="#2A9CF5"/>
<path d="M143.606 286.792H19.3855V291.671H143.606V286.792Z" fill="#2A9CF5"/>
<path d="M81.5212 219.473C89.4245 211.191 104.063 215.074 105.815 207.583C108.118 197.721 106.606 189.646 104.991 188.924C96.5376 185.179 99.802 177.447 104.303 180.712C106.474 182.292 107.156 181.949 107.259 180.643V180.574C106.716 173.186 112.894 160.163 121.794 176.073C110.626 152.809 85.2613 167.31 87.9741 188.684C87.9741 188.684 63.0957 198.649 74.6758 226.586C76.9419 224.253 79.2099 221.882 81.5212 219.473Z" fill="#2A9CF5"/>
<path d="M244.081 32.9918C242.45 31.8699 240.521 31.2606 238.541 31.2419C236.562 31.2232 234.622 31.796 232.969 32.8869C231.873 33.6103 230.931 34.5453 230.199 35.6359L219.959 50.929C226.144 54.8463 231.642 58.7962 236.247 62.3029L246.693 46.668C248.144 44.5033 248.684 41.8537 248.195 39.2937C247.706 36.7336 246.228 34.4694 244.081 32.9918Z" fill="#2A9CF5"/>
<path d="M90.9631 251.915C92.222 255.559 93.3 259.263 94.1932 263.014L94.4844 248.341L90.9631 251.915Z" fill="#2A9CF5"/>
<path d="M112.783 195.972L117.628 201.883C117.507 200.397 117.484 198.904 117.559 197.415C115.905 197.169 114.296 196.683 112.783 195.972Z" fill="#2A9CF5"/>
<path d="M152.779 231.297L161.747 255.935C161.369 251.261 160.751 246.21 160.063 241.331C157.694 237.826 155.22 234.458 152.779 231.297Z" fill="#2A9CF5"/>
<path d="M160.786 139.481C166.732 142.434 172.265 146.154 177.244 150.546L193.325 126.492C188.045 122.501 182.754 118.527 177.45 114.568L160.786 139.481Z" fill="#2A9CF5"/>
<path d="M306 121.716C306.001 122.251 305.883 122.779 305.654 123.263C305.426 123.747 305.093 124.174 304.679 124.514C304.266 124.853 303.782 125.097 303.263 125.226C302.744 125.356 302.202 125.369 301.677 125.264C301.005 125.13 300.385 124.809 299.889 124.336C299.393 123.864 299.041 123.26 298.874 122.596C298.708 121.931 298.733 121.233 298.948 120.582C299.163 119.931 299.558 119.355 300.088 118.921C300.617 118.486 301.259 118.21 301.939 118.126C302.619 118.042 303.309 118.153 303.929 118.446C304.548 118.739 305.072 119.202 305.438 119.781C305.805 120.359 306 121.03 306 121.716Z" stroke="white" stroke-width="1.23358" stroke-linecap="round" stroke-linejoin="round"/>
<path d="M181.609 342.597C181.608 342.998 181.489 343.39 181.266 343.723C181.043 344.057 180.727 344.317 180.357 344.471C180.08 344.584 179.781 344.635 179.482 344.62C179.183 344.604 178.891 344.523 178.627 344.382C178.363 344.241 178.133 344.043 177.954 343.803C177.776 343.563 177.652 343.287 177.592 342.993C177.52 342.633 177.548 342.26 177.671 341.914C177.795 341.568 178.01 341.261 178.294 341.028C178.578 340.795 178.92 340.643 179.284 340.589C179.648 340.534 180.019 340.58 180.359 340.72C180.731 340.871 181.05 341.131 181.273 341.466C181.496 341.801 181.613 342.195 181.609 342.597Z" stroke="white" stroke-width="1.23358" stroke-linecap="round" stroke-linejoin="round"/>
<path d="M158.861 278.03V300.16C158.863 301.049 158.69 301.93 158.35 302.752C158.01 303.574 157.511 304.321 156.881 304.949C156.253 305.579 155.506 306.078 154.684 306.418C153.862 306.758 152.981 306.931 152.092 306.929H9.75892C8.86953 306.931 7.98855 306.757 7.16665 306.417C6.34476 306.077 5.59818 305.578 4.96989 304.949C4.33999 304.321 3.84068 303.574 3.50079 302.752C3.16089 301.93 2.98713 301.049 2.98953 300.16V191.918C2.98762 191.029 3.16141 190.147 3.50093 189.325C3.84045 188.503 4.339 187.756 4.96798 187.127C5.59696 186.498 6.34397 186 7.16613 185.66C7.9883 185.321 8.86942 185.147 9.75892 185.149H51.7173" stroke="white" stroke-width="1.23358" stroke-linecap="round" stroke-linejoin="round"/>
<path d="M57.3527 174.668H51.7173V190.612" stroke="white" stroke-width="1.23358" stroke-linecap="round" stroke-linejoin="round"/>
<path d="M71.9224 262.464V271.948H83.3994" stroke="white" stroke-width="1.23358" stroke-linecap="round" stroke-linejoin="round"/>
<path d="M50.0343 200.302H18.2527V214.838H49.9005" stroke="white" stroke-width="1.23358" stroke-linecap="round" stroke-linejoin="round"/>
<path d="M19.3853 291.672H143.605V286.793H19.3853V291.672Z" stroke="white" stroke-width="1.23358" stroke-linecap="round" stroke-linejoin="round"/>
<path d="M51.8913 226.899H18.2505V271.57H56.599V240.335" stroke="white" stroke-width="1.23358" stroke-linecap="round" stroke-linejoin="round"/>
<path d="M216.588 119.822C213.071 117.181 209.566 114.523 206.073 111.85" stroke="white" stroke-width="1.23358" stroke-linecap="round" stroke-linejoin="round"/>
<path d="M227.001 103.503L216.005 95.2219" stroke="white" stroke-width="1.23358" stroke-linecap="round" stroke-linejoin="round"/>
<path d="M238.718 88.4528C234.558 85.3258 229.921 82.0614 226.519 79.656" stroke="white" stroke-width="1.23358" stroke-linecap="round" stroke-linejoin="round"/>
<path d="M174.943 112.641C179.41 116.011 203.963 134.373 205.457 135.563C218.045 145.586 228.171 130.231 219.237 122.299C219.056 122.14 216.591 119.825 216.591 119.825L218.037 120.856C229.082 128.774 240.889 113.159 227.006 103.494C227.845 104.1 229.299 105.091 229.48 105.212C240.572 112.663 251.988 96.8275 238.724 88.443C249.617 95.4186 258.999 82.5291 251.403 75.0417C238.718 63.3779 224.719 53.23 209.687 44.8027C199.064 38.8671 191.75 35.8323 184.225 32.0886" stroke="white" stroke-width="1.23358" stroke-linecap="round" stroke-linejoin="round"/>
<path d="M169.064 126.797C156.796 115.32 155.129 116.809 151.883 107.146C150.213 102.966 147.604 99.2265 144.256 96.2183" stroke="white" stroke-width="1.23358" stroke-linecap="round" stroke-linejoin="round"/>
<path d="M155.356 1L181.609 17.494C198.584 28.0776 146.834 111.063 129.859 100.479L1 20.2773" stroke="white" stroke-width="1.23358" stroke-linecap="round" stroke-linejoin="round"/>
<path d="M155.357 1C168.312 10.003 114.019 91.442 101.065 82.4046" stroke="white" stroke-width="1.23358" stroke-linecap="round" stroke-linejoin="round"/>
<path d="M286.916 175.997C286.464 175.947 286.118 175.892 285.934 175.391C285.677 174.708 285.223 174.14 285.791 173.541C286.192 173.139 286.466 172.627 286.577 172.069C286.688 171.512 286.632 170.934 286.415 170.409C286.271 170.06 286.059 169.742 285.791 169.476L284.399 168.11C284.131 167.843 283.814 167.631 283.465 167.486C283.116 167.341 282.742 167.267 282.364 167.267C281.986 167.267 281.612 167.341 281.263 167.486C280.913 167.631 280.596 167.843 280.329 168.11C279.761 168.678 279.165 168.224 278.51 167.967C278.331 167.9 278.178 167.779 278.071 167.621C277.964 167.463 277.909 167.275 277.913 167.085C277.912 166.323 277.61 165.593 277.074 165.052C276.807 164.785 276.489 164.574 276.14 164.43C275.791 164.286 275.417 164.212 275.039 164.213H273.077C272.699 164.211 272.325 164.285 271.976 164.428C271.627 164.572 271.31 164.784 271.043 165.051C270.776 165.318 270.565 165.635 270.421 165.984C270.277 166.333 270.204 166.707 270.205 167.085C270.205 167.882 269.465 167.989 268.811 168.28C268.64 168.356 268.451 168.377 268.268 168.341C268.085 168.306 267.917 168.215 267.787 168.081C267.247 167.543 266.516 167.241 265.753 167.241C264.991 167.241 264.26 167.543 263.72 168.081L262.298 169.476C261.894 169.877 261.619 170.389 261.508 170.947C261.397 171.506 261.455 172.084 261.674 172.61C261.819 172.957 262.03 173.275 262.298 173.541C262.866 174.111 262.412 174.708 262.155 175.391C262.087 175.57 261.966 175.723 261.808 175.829C261.65 175.936 261.463 175.992 261.273 175.988C260.895 175.987 260.52 176.061 260.171 176.205C259.821 176.349 259.504 176.56 259.236 176.827C258.968 177.094 258.756 177.411 258.612 177.76C258.468 178.11 258.395 178.484 258.397 178.862L258.426 180.824C258.422 181.393 258.588 181.951 258.904 182.424C259.22 182.897 259.671 183.265 260.198 183.479C260.547 183.624 260.92 183.698 261.298 183.696C262.095 183.696 262.202 184.436 262.493 185.091C262.575 185.265 262.6 185.46 262.564 185.649C262.529 185.838 262.434 186.011 262.294 186.143C262.027 186.41 261.815 186.727 261.671 187.076C261.526 187.425 261.452 187.799 261.452 188.177C261.452 188.555 261.526 188.929 261.671 189.278C261.815 189.626 262.027 189.944 262.294 190.211L263.687 191.603C263.954 191.87 264.271 192.082 264.62 192.227C264.969 192.371 265.343 192.446 265.721 192.446C266.098 192.446 266.472 192.371 266.821 192.227C267.17 192.082 267.487 191.87 267.754 191.603C268.324 191.035 268.921 191.489 269.576 191.746C269.754 191.814 269.907 191.935 270.014 192.093C270.121 192.251 270.176 192.438 270.172 192.629C270.17 193.006 270.243 193.38 270.387 193.73C270.531 194.079 270.744 194.395 271.012 194.661C271.278 194.929 271.595 195.142 271.944 195.286C272.294 195.43 272.668 195.503 273.046 195.501L275.036 195.472C275.414 195.474 275.788 195.401 276.138 195.257C276.487 195.113 276.804 194.901 277.07 194.632C277.608 194.093 277.91 193.362 277.909 192.6C277.909 191.802 278.649 191.695 279.304 191.404C279.478 191.324 279.673 191.3 279.861 191.336C280.049 191.372 280.222 191.465 280.355 191.603C280.622 191.87 280.939 192.082 281.288 192.227C281.637 192.371 282.011 192.446 282.388 192.446C282.766 192.446 283.14 192.371 283.489 192.227C283.838 192.082 284.155 191.87 284.422 191.603L285.787 190.211C286.055 189.944 286.267 189.626 286.411 189.278C286.556 188.929 286.63 188.555 286.63 188.177C286.63 187.799 286.556 187.425 286.411 187.076C286.267 186.727 286.055 186.41 285.787 186.143C285.22 185.573 285.674 184.977 285.93 184.293C285.998 184.115 286.119 183.962 286.276 183.855C286.434 183.749 286.621 183.693 286.811 183.696C287.189 183.699 287.564 183.626 287.913 183.482C288.262 183.338 288.58 183.125 288.846 182.857C289.384 182.317 289.686 181.586 289.685 180.824V178.862C289.685 178.119 289.396 177.404 288.879 176.87C288.363 176.335 287.659 176.023 286.916 175.997Z" stroke="white" stroke-width="1.23358" stroke-linecap="round" stroke-linejoin="round"/>
<path d="M274.045 187.167C272.96 187.166 271.888 186.925 270.908 186.461C269.927 185.997 269.061 185.321 268.373 184.482C267.685 183.643 267.191 182.663 266.927 181.61C266.663 180.558 266.636 179.46 266.847 178.395C267.129 176.972 267.828 175.664 268.855 174.638C269.881 173.611 271.189 172.912 272.613 172.63C273.677 172.419 274.775 172.446 275.827 172.71C276.88 172.974 277.86 173.468 278.699 174.156C279.538 174.844 280.214 175.71 280.678 176.691C281.142 177.671 281.383 178.743 281.384 179.828C281.387 180.792 281.199 181.748 280.831 182.64C280.463 183.531 279.922 184.341 279.24 185.023C278.558 185.705 277.748 186.246 276.857 186.614C275.965 186.982 275.009 187.17 274.045 187.167Z" stroke="white" stroke-width="1.23358" stroke-linecap="round" stroke-linejoin="round"/>
<path d="M227.105 179.856H240.404" stroke="white" stroke-width="1.23358" stroke-linecap="round" stroke-linejoin="round"/>
<path d="M276.414 218.858C274.923 218.835 273.448 219.168 272.111 219.829C270.774 220.491 269.614 221.461 268.727 222.661C267.84 223.86 267.252 225.253 267.011 226.725C266.77 228.197 266.884 229.706 267.343 231.125C270.298 237.455 270.504 237.62 271.088 244.492H281.809C281.838 240.104 282.976 235.795 285.117 231.964C285.78 230.532 286.064 228.955 285.944 227.382C285.823 225.809 285.302 224.293 284.429 222.978C283.557 221.664 282.362 220.595 280.959 219.874C279.556 219.153 277.991 218.803 276.414 218.858Z" stroke="white" stroke-width="1.23358" stroke-linecap="round" stroke-linejoin="round"/>
<path d="M276.45 244.492V228.72C276.464 228.129 276.709 227.567 277.134 227.156C277.558 226.745 278.127 226.516 278.717 226.52H279.748C280.189 226.505 280.623 226.624 280.995 226.859C281.367 227.095 281.659 227.438 281.834 227.842C281.951 228.11 282.013 228.398 282.016 228.691C282.003 229.283 281.759 229.847 281.335 230.261C280.911 230.676 280.341 230.907 279.748 230.906H273.151C272.86 230.918 272.57 230.871 272.298 230.768C272.026 230.666 271.777 230.51 271.566 230.309C271.355 230.11 271.185 229.87 271.068 229.603C270.951 229.337 270.888 229.05 270.883 228.759C270.897 228.169 271.143 227.607 271.567 227.196C271.991 226.784 272.56 226.556 273.151 226.56H275.419" stroke="white" stroke-width="1.23358" stroke-linecap="round" stroke-linejoin="round"/>
<path d="M281.773 253.667H271.086V248.1H281.773V253.667Z" stroke="white" stroke-width="1.23358" stroke-linecap="round" stroke-linejoin="round"/>
<path d="M227.105 236.246H240.404" stroke="white" stroke-width="1.23358" stroke-linecap="round" stroke-linejoin="round"/>
<path d="M227.105 295.417H240.404" stroke="white" stroke-width="1.23358" stroke-linecap="round" stroke-linejoin="round"/>
<path d="M269.334 300.331L253.218 292.119L269.231 284.593" stroke="white" stroke-width="1.23358" stroke-linecap="round" stroke-linejoin="round"/>
<path d="M283.665 300.468L299.644 292.359L283.562 284.73" stroke="white" stroke-width="1.23358" stroke-linecap="round" stroke-linejoin="round"/>
<path d="M282.018 277.996L270.644 307.307" stroke="white" stroke-width="1.23358" stroke-linecap="round" stroke-linejoin="round"/>
<path d="M85.7717 257.103L94.5342 248.375L94.3967 263.117" stroke="white" stroke-width="1.23358" stroke-linecap="round" stroke-linejoin="round"/>
<path d="M74.672 226.589C72.4384 228.926 70.2049 231.228 68.04 233.496" stroke="white" stroke-width="1.23358" stroke-linecap="round" stroke-linejoin="round"/>
<path d="M138.965 270.401C147.075 249.603 144.91 234.011 138.759 222.947" stroke="white" stroke-width="1.23358" stroke-linecap="round" stroke-linejoin="round"/>
<path d="M117.555 197.409C117.486 199.23 117.239 206.108 120.201 209.707C121.984 211.877 125.149 211.597 129.513 211.906C137.61 212.523 149.34 225.611 160.049 241.456" stroke="white" stroke-width="1.23358" stroke-linecap="round" stroke-linejoin="round"/>
<path d="M179.615 205.457C177.278 193.739 176.242 190.626 173.945 180.922C173.644 179.656 173.256 178.138 172.742 176.42C170.845 170.065 168.711 169.79 169.443 177.314C169.72 180.162 169.674 183.032 169.306 185.87V185.939C169.206 186.876 169.045 187.806 168.825 188.722" stroke="white" stroke-width="1.23358" stroke-linecap="round" stroke-linejoin="round"/>
<path d="M169.306 185.904C168.176 182.393 166.868 178.941 165.389 175.561C162.846 169.231 160.204 169.065 161.953 176.827C163.777 184.935 163.121 188.82 163.121 188.82" stroke="white" stroke-width="1.23358" stroke-linecap="round" stroke-linejoin="round"/>
<path d="M158.759 190.578C158.759 190.578 153.695 176.667 153.334 175.802C150.585 169.28 152.954 168.071 156.495 173.534C159.725 178.517 163.187 185.29 163.187 185.29" stroke="white" stroke-width="1.23358" stroke-linecap="round" stroke-linejoin="round"/>
<path d="M158.243 212.02C157.762 209.408 155.494 206.35 153.226 206.178C149.172 205.871 143.218 206.006 143.364 203.979C143.591 200.85 152.335 201.405 155.048 199.096C155.975 198.307 154.72 194.963 154.086 193.735C153.013 191.659 149.309 184.692 148.931 184.011C145.495 177.757 148.027 176.764 151.715 181.605C153.469 184.054 155.563 186.241 157.934 188.1" stroke="white" stroke-width="1.23358" stroke-linecap="round" stroke-linejoin="round"/>
<path d="M156.009 192.021C160.386 189.267 165.591 188.136 170.716 188.826" stroke="white" stroke-width="1.23358" stroke-linecap="round" stroke-linejoin="round"/>
<path d="M159.169 195.285C165.08 195.285 169.409 197.553 170.925 202.983" stroke="white" stroke-width="1.23358" stroke-linecap="round" stroke-linejoin="round"/>
<path d="M87.9719 188.688C87.9719 188.688 63.0935 198.653 74.6736 226.589C76.9415 224.253 79.2095 221.887 81.5117 219.476C89.4151 211.195 104.054 215.078 105.806 207.587C108.108 197.725 106.596 189.65 104.981 188.928C96.5281 185.183 99.7926 177.451 104.294 180.716C106.054 182 107.327 182.408 107.228 180.225C106.895 172.787 113.026 160.416 121.785 176.077C110.617 152.813 85.2573 167.349 87.9719 188.688Z" stroke="white" stroke-width="1.23358" stroke-linecap="round" stroke-linejoin="round"/>
<path d="M87.9374 188.688C87.9374 188.688 75.849 180.69 79.7591 177.52C83.6692 174.35 87.9374 188.688 87.9374 188.688Z" stroke="white" stroke-width="1.23358" stroke-linecap="round" stroke-linejoin="round"/>
<path d="M87.9364 188.688C87.9364 188.688 73.9509 192.605 74.1227 187.588C74.2945 182.606 87.9364 188.688 87.9364 188.688Z" stroke="white" stroke-width="1.23358" stroke-linecap="round" stroke-linejoin="round"/>
<path d="M141.198 263.976L145.734 268.615" stroke="white" stroke-width="1.23358" stroke-linecap="round" stroke-linejoin="round"/>
<path d="M119.619 208.858C119.722 211.229 105.151 211.71 105.05 209.305" stroke="white" stroke-width="1.23358" stroke-linecap="round" stroke-linejoin="round"/>
<path d="M102.438 211.401L109.517 221.71L115.496 210.645L127.97 219.477L121.235 210.611" stroke="white" stroke-width="1.23358" stroke-linecap="round" stroke-linejoin="round"/>
<path d="M115.495 210.645C119.756 217.071 129.996 236.146 123.707 271.604" stroke="white" stroke-width="1.23358" stroke-linecap="round" stroke-linejoin="round"/>
<path d="M20.311 90.72V129.343" stroke="white" stroke-width="1.23358" stroke-linecap="round" stroke-linejoin="round"/>
<path d="M39.6234 110.049H1" stroke="white" stroke-width="1.23358" stroke-linecap="round" stroke-linejoin="round"/>
<path d="M117.625 201.883L112.814 195.973C123.747 201.056 131.717 193.464 121.783 176.079" stroke="white" stroke-width="1.23358" stroke-linecap="round" stroke-linejoin="round"/>
<path d="M187.177 225.833C186.181 219.191 184.827 212.606 183.122 206.109C182.057 202.776 154.185 211.535 155.22 214.872C158.173 228.411 160.342 242.111 161.714 255.901L152.778 231.263" stroke="white" stroke-width="1.23358" stroke-linecap="round" stroke-linejoin="round"/>
<path d="M174.772 184.564H185.012" stroke="white" stroke-width="1.23358" stroke-linecap="round" stroke-linejoin="round"/>
<path d="M154.083 184.564H156.557" stroke="white" stroke-width="1.23358" stroke-linecap="round" stroke-linejoin="round"/>
<path d="M125.46 184.564H149.204" stroke="white" stroke-width="1.23358" stroke-linecap="round" stroke-linejoin="round"/>
<path d="M67.355 184.564H87.7663" stroke="white" stroke-width="1.23358" stroke-linecap="round" stroke-linejoin="round"/>
<path d="M91.3039 139.962C79.4302 146.078 69.3551 155.182 62.0715 166.378C54.788 177.573 50.5474 190.473 49.7678 203.807C48.9882 217.14 51.6964 230.447 57.6256 242.415C63.5548 254.383 72.5002 264.6 83.5803 272.058C94.6604 279.516 107.493 283.958 120.812 284.946C134.132 285.934 147.479 283.435 159.539 277.694C171.598 271.953 181.954 263.169 189.584 252.207C197.215 241.245 201.857 228.484 203.054 215.181C208.679 154.942 145.036 112.202 91.3039 139.962Z" stroke="white" stroke-width="1.23358" stroke-linecap="round" stroke-linejoin="round"/>
<path d="M127.317 144.829C115.169 144.619 103.217 147.903 92.8807 154.289C82.5445 160.675 74.2596 169.895 69.0109 180.852C63.7622 191.81 61.7705 204.044 63.2726 216.101C64.7747 228.157 69.7074 239.529 77.4842 248.864C85.2611 258.198 95.555 265.104 107.142 268.758C118.729 272.413 131.122 272.663 142.847 269.48C154.572 266.296 165.137 259.812 173.284 250.8C181.432 241.787 186.82 230.624 188.808 218.637C190.295 209.644 189.827 200.436 187.437 191.639C185.047 182.843 180.79 174.664 174.956 167.66C169.121 160.656 161.846 154.992 153.625 151.052C145.405 147.112 136.432 144.99 127.317 144.829Z" stroke="white" stroke-width="1.23358" stroke-linecap="round" stroke-linejoin="round"/>
<path d="M244.081 32.9915C242.45 31.8697 240.521 31.2603 238.541 31.2417C236.561 31.223 234.621 31.7958 232.969 32.8866C231.873 33.6101 230.931 34.5451 230.198 35.6356L219.958 50.9287C226.144 54.8461 231.642 58.7959 236.246 62.3027L246.692 46.6678C248.144 44.5031 248.684 41.8535 248.195 39.2934C247.706 36.7334 246.228 34.4691 244.081 32.9915Z" stroke="white" stroke-width="1.23358" stroke-linejoin="round"/>
<path d="M160.786 139.481C166.732 142.433 172.265 146.153 177.244 150.545L193.325 126.492C188.045 122.501 182.754 118.527 177.45 114.568L160.786 139.481Z" stroke="white" stroke-width="1.23358" stroke-linejoin="round"/>
</svg>
