<svg width="202" height="181" viewBox="0 0 202 181" fill="none" xmlns="http://www.w3.org/2000/svg">
<path d="M151.426 35.1601L138.205 36.3487L143.812 98.7227L157.034 97.5341L151.426 35.1601Z" fill="#141736"/>
<path fill-rule="evenodd" clip-rule="evenodd" d="M93.7533 113.668C103.166 113.524 116.152 110.639 125.566 110.691C125.656 110.691 125.746 110.671 125.829 110.636C125.912 110.601 125.987 110.55 126.051 110.485C126.114 110.42 126.164 110.344 126.199 110.261C126.232 110.177 126.249 110.087 126.249 109.997C126.248 109.907 126.229 109.816 126.194 109.734C126.159 109.65 126.108 109.575 126.043 109.511C125.978 109.447 125.902 109.398 125.818 109.364C125.734 109.331 125.644 109.313 125.554 109.313C114.633 109.556 109.468 111.483 93.7083 112.265C93.5222 112.271 93.346 112.35 93.2187 112.487C93.0913 112.622 93.0231 112.803 93.0292 112.989C93.0352 113.175 93.1147 113.351 93.2506 113.479C93.3864 113.606 93.5673 113.674 93.7533 113.668Z" fill="#2A9CF5"/>
<path fill-rule="evenodd" clip-rule="evenodd" d="M130.835 110.14C135.82 110.317 147.193 108.779 153.478 108.87C153.656 108.863 153.824 108.786 153.947 108.657C154.07 108.527 154.138 108.355 154.136 108.177C154.135 107.999 154.066 107.827 153.941 107.7C153.817 107.572 153.647 107.497 153.469 107.492C152.547 107.517 134.457 108.695 130.85 108.736C130.669 108.742 130.496 108.817 130.369 108.945C130.241 109.075 130.168 109.249 130.167 109.431C130.165 109.613 130.234 109.789 130.358 109.921C130.482 110.052 130.654 110.132 130.835 110.14Z" fill="#2A9CF5"/>
<path fill-rule="evenodd" clip-rule="evenodd" d="M122.719 118.494C130.938 118.417 144.809 116.491 154.756 116.696C154.934 116.691 155.104 116.616 155.228 116.488C155.353 116.36 155.423 116.19 155.425 116.012C155.426 115.834 155.357 115.661 155.235 115.532C155.113 115.402 154.944 115.326 154.766 115.318C137.378 115.458 139.472 116.433 122.681 117.09C122.587 117.09 122.494 117.108 122.407 117.145C122.321 117.181 122.242 117.235 122.177 117.302C122.111 117.369 122.06 117.449 122.026 117.536C121.991 117.624 121.975 117.717 121.977 117.811C121.979 117.905 122.001 117.997 122.039 118.083C122.079 118.169 122.135 118.245 122.204 118.31C122.272 118.373 122.354 118.422 122.443 118.453C122.531 118.486 122.625 118.5 122.719 118.494Z" fill="#2A9CF5"/>
<path fill-rule="evenodd" clip-rule="evenodd" d="M123.831 126.183C129.8 125.62 127.922 125.715 132.199 125.247C132.306 125.236 151.9 123.387 155.934 123.118C156.113 123.098 156.276 123.009 156.389 122.87C156.503 122.732 156.559 122.555 156.544 122.376C156.529 122.197 156.445 122.031 156.31 121.913C156.176 121.795 156 121.735 155.821 121.744C149.773 122.329 129.973 124.006 123.676 124.787C123.58 124.793 123.487 124.817 123.402 124.86C123.316 124.903 123.24 124.962 123.179 125.035C123.117 125.108 123.071 125.193 123.043 125.284C123.016 125.376 123.006 125.472 123.017 125.567C123.028 125.662 123.058 125.754 123.105 125.836C123.152 125.919 123.215 125.992 123.292 126.05C123.368 126.107 123.455 126.148 123.548 126.171C123.64 126.194 123.737 126.198 123.831 126.182V126.183Z" fill="#2A9CF5"/>
<path fill-rule="evenodd" clip-rule="evenodd" d="M50.7773 55.3304C46.8374 55.889 42.8679 56.2135 38.8897 56.3024C38.7033 56.3024 38.5246 56.3764 38.3927 56.5082C38.261 56.64 38.187 56.8187 38.187 57.0051C38.187 57.1914 38.261 57.3702 38.3927 57.5019C38.5246 57.6337 38.7033 57.7077 38.8897 57.7077C42.9681 57.6499 47.0371 57.2975 51.0648 56.6532C50.9618 56.2155 50.8659 55.7746 50.7773 55.3304Z" fill="#2A9CF5"/>
<path fill-rule="evenodd" clip-rule="evenodd" d="M38.9614 67.7581C40.7508 67.7334 48.8494 66.5115 51.9851 66.46C52.0752 66.4519 52.1629 66.426 52.2429 66.384C52.323 66.3419 52.394 66.2845 52.452 66.2151C52.5099 66.1456 52.5536 66.0654 52.5805 65.979C52.6074 65.8927 52.6172 65.8019 52.6089 65.7118C52.6008 65.6216 52.5749 65.5341 52.533 65.4539C52.4909 65.3738 52.4335 65.3028 52.3639 65.2449C52.2945 65.187 52.2143 65.1433 52.1279 65.1164C52.0416 65.0894 51.9508 65.0798 51.8606 65.088C47.4906 65.2165 43.1344 65.6416 38.8219 66.3602C38.6471 66.3909 38.4904 66.4863 38.3832 66.6277C38.2759 66.7691 38.226 66.9458 38.2437 67.1224C38.2614 67.2989 38.3452 67.4624 38.4783 67.5796C38.6115 67.6969 38.7841 67.7596 38.9614 67.7549V67.7581Z" fill="#2A9CF5"/>
<path fill-rule="evenodd" clip-rule="evenodd" d="M60.2605 75.5344C53.887 76.2993 49.5992 76.8217 38.779 78.7366C38.5953 78.7668 38.4311 78.8687 38.3226 79.0198C38.214 79.171 38.1701 79.3592 38.2002 79.5428C38.2304 79.7265 38.3322 79.8907 38.4834 79.9992C38.6347 80.1077 38.8227 80.1517 39.0064 80.1216C53.4322 78.0061 58.308 77.1886 61.3119 76.7315C60.955 76.3397 60.6045 75.9406 60.2605 75.5344Z" fill="#2A9CF5"/>
<path d="M92.4125 88.9445L89.0869 103.648L101.143 102.564L99.8598 88.3512C97.3965 88.7413 94.9066 88.9397 92.4125 88.9445Z" fill="#141736"/>
<path d="M105.207 87.1713L106.546 102.074L119.768 100.884L117.981 81.0125C114.12 83.8035 109.795 85.8887 105.207 87.1713Z" fill="#141736"/>
<path d="M134.533 56.1853C133.296 63.2128 130.004 69.7158 125.072 74.8723C124.416 75.5396 123.745 76.1922 123.062 76.8301L125.182 100.401L138.402 99.213L134.533 56.1853Z" fill="#141736"/>
<path fill-rule="evenodd" clip-rule="evenodd" d="M38.9971 88.8235C42.696 88.346 51.9917 86.8859 60.2908 86.0942C60.8859 85.5935 61.5124 85.0929 62.1704 84.5923C54.8099 85.1759 49.1092 85.7423 38.789 87.4309C38.6974 87.4445 38.6093 87.476 38.53 87.5239C38.4507 87.5715 38.3814 87.6343 38.3263 87.7087C38.2712 87.7832 38.2314 87.8677 38.209 87.9574C38.1866 88.0473 38.1821 88.1407 38.1957 88.2323C38.2093 88.3238 38.2409 88.4117 38.2886 88.4912C38.3362 88.5706 38.3991 88.6397 38.4735 88.6948C38.5479 88.7499 38.6324 88.7899 38.7223 88.8122C38.8121 88.8347 38.9054 88.8392 38.9971 88.8255V88.8235Z" fill="#2A9CF5"/>
<path fill-rule="evenodd" clip-rule="evenodd" d="M39.0313 101.506C42.373 100.893 46.1997 100.398 50.2355 99.9682C50.5294 99.4232 50.8181 98.8976 51.1013 98.3912C46.9572 98.7463 42.8356 99.3266 38.7545 100.129C38.5719 100.166 38.4115 100.273 38.3084 100.428C38.2052 100.583 38.168 100.773 38.2047 100.955C38.2414 101.138 38.3491 101.298 38.5041 101.401C38.6591 101.504 38.8486 101.542 39.0313 101.506Z" fill="#2A9CF5"/>
<path fill-rule="evenodd" clip-rule="evenodd" d="M118.79 118.497C118.785 118.408 118.761 118.319 118.722 118.239C118.683 118.157 118.627 118.086 118.559 118.025C118.492 117.965 118.413 117.92 118.329 117.89C118.243 117.861 118.153 117.848 118.063 117.854C99.0314 119.173 108.153 118.4 94.6255 119.652C94.6742 120.094 94.6978 120.538 94.6963 120.982C112.787 119.503 109.562 119.599 118.141 119.229C118.232 119.225 118.321 119.202 118.403 119.163C118.485 119.123 118.558 119.068 118.618 118.999C118.679 118.932 118.726 118.852 118.755 118.766C118.785 118.68 118.796 118.589 118.79 118.497Z" fill="#2A9CF5"/>
<path fill-rule="evenodd" clip-rule="evenodd" d="M120.214 125.819C120.207 125.729 120.184 125.641 120.143 125.56C120.102 125.478 120.046 125.406 119.978 125.347C119.909 125.288 119.83 125.242 119.744 125.214C119.658 125.185 119.567 125.175 119.477 125.181C115.287 125.537 116.641 125.551 109.048 126.101C103.255 126.522 97.8784 127.209 93.5143 127.889C93.4441 128.347 93.4175 128.81 93.4348 129.274C96.9376 128.719 101.598 128.123 109.488 127.27C114.829 126.693 116.529 126.733 119.572 126.555C119.663 126.55 119.751 126.526 119.833 126.487C119.915 126.446 119.987 126.39 120.046 126.321C120.107 126.253 120.153 126.173 120.181 126.087C120.21 126.001 120.22 125.91 120.214 125.819Z" fill="#2A9CF5"/>
<path fill-rule="evenodd" clip-rule="evenodd" d="M201.964 130.54L194.117 16.5707C194.104 16.4862 194.074 16.4051 194.03 16.3321C193.985 16.2592 193.926 16.196 193.856 16.1461C193.788 16.0961 193.708 16.0604 193.626 16.0413C193.542 16.0221 193.456 16.0197 193.372 16.0343L127.207 21.9206C127.489 22.3233 127.765 22.7302 128.033 23.1415C161.418 20.2309 190.344 17.6821 192.901 17.3763C193.206 20.6859 200.196 124.797 200.591 130.127L89.8247 139.804C89.4225 140.302 89.0116 140.791 88.605 141.287L201.378 131.433C201.481 131.425 201.579 131.392 201.668 131.34C201.757 131.287 201.833 131.215 201.888 131.13C201.945 131.043 201.981 130.945 201.995 130.843C202.008 130.741 201.997 130.637 201.964 130.54Z" fill="#2A9CF5"/>
<path fill-rule="evenodd" clip-rule="evenodd" d="M27.7123 112.331C28.6102 120.212 29.1381 142.345 29.8943 145.316C30.2612 146.756 31.6441 146.404 33.1127 146.253C33.5268 145.692 33.9217 145.114 34.2928 144.521C32.4069 144.674 31.3673 144.752 31.2439 144.752C30.7784 142.335 30.3128 130.772 29.8268 122.179C29.284 112.587 27.2982 95.0763 21.5577 32.3543C22.711 32.261 35.6864 31.1463 54.0311 29.5651C54.2264 29.1667 54.4256 28.7733 54.6286 28.385L20.4388 31.4135C20.3366 31.5366 20.2865 31.6949 20.2994 31.8544C20.2994 31.8544 27.3755 109.381 27.7123 112.331Z" fill="#2A9CF5"/>
<path d="M91.9596 128.901C91.9365 128.802 91.8941 128.708 91.8347 128.625C91.7752 128.542 91.7002 128.471 91.6135 128.418C91.5269 128.364 91.4305 128.327 91.3298 128.31C91.2292 128.294 91.1262 128.297 91.0268 128.32C90.9274 128.344 90.8335 128.385 90.7505 128.445C90.6676 128.504 90.5971 128.58 90.5431 128.666C90.4892 128.753 90.4528 128.85 90.4361 128.95C90.4194 129.051 90.4227 129.154 90.4458 129.253C90.8817 130.767 90.7755 132.386 90.1455 133.83C88.1286 139.436 80.9667 143.584 74.7552 145.017C74.5766 145.064 74.4212 145.175 74.318 145.329C74.2148 145.482 74.1707 145.668 74.1941 145.852C74.2174 146.035 74.3064 146.203 74.4449 146.326C74.5832 146.449 74.7614 146.518 74.9462 146.519C76.2636 146.519 82.725 143.269 82.843 143.214C85.9895 141.712 90.493 137.518 91.6399 134.368C92.1936 132.599 92.3034 130.722 91.9596 128.901Z" fill="#2A9CF5"/>
<path d="M85.3071 142.94C85.2574 142.795 85.1659 142.667 85.044 142.574C84.9223 142.482 84.7755 142.426 84.6226 142.416C84.4694 142.407 84.3169 142.443 84.1842 142.519C84.0516 142.597 83.9446 142.711 83.877 142.849C80.0719 150.67 75.3559 149.822 70.9521 151.546C67.09 153.081 64.2514 157.214 60.0546 161.892C58.7899 163.294 52.8305 169.921 51.6558 171.048C46.8283 175.67 41.4321 178.86 34.7797 178.772C34.5769 178.773 34.3826 178.855 34.2398 178.999C34.0969 179.142 34.0171 179.338 34.0181 179.54C34.0189 179.743 34.1002 179.937 34.2443 180.08C34.3884 180.223 34.5833 180.303 34.7862 180.302C39.2145 180.159 43.5038 178.722 47.1232 176.166C50.8423 173.557 54.2715 170.557 57.3523 167.218C62.5607 161.516 64.7803 157.32 69.2303 154.072C72.5312 151.681 76.1358 152.857 80.486 149.51C82.5152 147.911 84.1496 145.868 85.2631 143.537C85.3099 143.445 85.3378 143.345 85.3453 143.244C85.3529 143.141 85.3399 143.038 85.3071 142.94Z" fill="#2A9CF5"/>
<path d="M67.8241 82.1429C62.9383 84.8648 58.7739 88.7151 55.678 93.3727C51.0633 100.907 47.3636 108.964 44.6572 117.373C41.5386 127.078 40.6964 136.981 35.0578 145.843C32.5367 149.812 28.8754 152.633 25.1388 155.512C21.6362 158.211 18.1314 160.935 13.8745 161.835C13.678 161.882 13.5077 162.004 13.3999 162.175C13.292 162.347 13.2552 162.553 13.2972 162.75C13.3391 162.947 13.4565 163.121 13.6245 163.234C13.7924 163.347 13.9976 163.388 14.1964 163.352C18.5294 162.399 22.0342 159.777 25.5315 157.048C29.4353 154.033 33.6053 150.812 36.3452 146.679C44.0693 134.808 41.899 124.579 50.5607 105.562C52.3545 101.595 54.4412 97.7658 56.8033 94.1087C60.0532 89.4606 64.3842 85.6721 69.4236 83.0699C68.8637 82.7555 68.3272 82.4476 67.8241 82.1429Z" fill="#2A9CF5"/>
<path d="M86.8018 113.632L86.4671 115.067C89.9354 115.635 91.4835 116.89 91.6777 120.457C92.0692 126.95 87.7748 133.087 82.3798 136.395C81.8371 136.745 81.2665 137.05 80.674 137.308C80.4327 138.078 80.3319 138.417 80.1377 138.958C85.3203 138.469 94.1644 127.77 93.1893 119.551C92.7054 115.316 89.7198 114.21 86.8018 113.632Z" fill="#2A9CF5"/>
<path d="M63.64 112.578C64.4453 107.257 66.0603 102.091 68.4289 97.2594C70.154 94.114 72.8391 91.0673 76.3042 90.1467C76.9737 89.9725 77.6515 89.8321 78.3351 89.7262L78.5968 88.4979C75.6884 88.7054 72.9472 89.9346 70.8578 91.9683C67.2005 95.4013 65.2492 100.537 63.7548 105.447C62.7809 108.41 62.1798 111.482 61.9653 114.595C62.4867 113.893 63.0457 113.219 63.64 112.578Z" fill="#2A9CF5"/>
<path d="M85.3837 105.228C83.7745 99.864 78.8 102.01 74.2793 105.366C65.7841 111.708 58.7027 119.748 53.4864 128.976C53.4113 129.13 53.3988 129.307 53.4519 129.469C53.505 129.631 53.6193 129.766 53.7707 129.845C53.922 129.925 54.0983 129.942 54.2619 129.894C54.4257 129.844 54.5638 129.734 54.6472 129.585C56.6029 125.926 58.9279 122.477 61.586 119.292C65.2099 114.894 72.3601 107.753 77.1179 104.726C76.8249 105.097 76.5824 105.505 76.397 105.939C75.9679 107 77.2938 109.494 79.095 110.106C80.3352 110.526 82.2329 109.625 83.368 108.971C81.3651 111.879 77.0492 114.996 75.4593 118.009C70.9998 126.562 71.7164 134.367 62.1331 151.48C62.0918 151.554 62.0656 151.635 62.056 151.718C62.0464 151.802 62.0538 151.887 62.0774 151.967C62.1133 152.09 62.1844 152.197 62.2816 152.278C62.3789 152.36 62.4981 152.41 62.6241 152.424C62.7502 152.438 62.8776 152.415 62.9903 152.357C63.1029 152.299 63.1959 152.209 63.2574 152.097C72.4835 134.959 71.7721 127.141 76.5461 118.603C78.4685 115.156 86.7687 109.77 85.3837 105.228ZM79.4394 109.09C78.8932 108.842 78.419 108.46 78.0609 107.98C77.7029 107.499 77.4729 106.935 77.3925 106.341C77.7787 105.375 79.5842 103.141 81.3264 103.027C82.8036 102.919 83.8261 103.778 84.3302 105.537C85.1305 108.328 79.8631 109.234 79.4394 109.09Z" fill="#2A9CF5"/>
<path d="M81.5202 80.6839C81.0906 80.684 80.6655 80.5983 80.2696 80.4315C79.8739 80.2647 79.5154 80.0204 79.2155 79.713C78.9156 79.4056 78.6802 79.0412 78.5233 78.6414C78.3664 78.2417 78.2911 77.8145 78.3018 77.3851L78.9573 51.0159C78.9678 50.5932 79.0613 50.1768 79.2328 49.7904C79.4043 49.404 79.6501 49.0549 79.9564 48.7636C80.2626 48.4721 80.6233 48.2438 81.018 48.0918C81.4124 47.9398 81.8329 47.8669 82.2556 47.8775C82.6782 47.888 83.0946 47.9816 83.4811 48.1529C83.8676 48.3244 84.2165 48.5702 84.5079 48.8765C84.7993 49.1828 85.0276 49.5435 85.1796 49.9381C85.3316 50.3326 85.4046 50.7531 85.394 51.1757L84.7374 77.5418C84.7175 78.3818 84.3698 79.1809 83.7687 79.768C83.1675 80.3551 82.3605 80.6838 81.5202 80.6839Z" fill="#2A9CF5"/>
<path d="M91.9572 83.3393C91.5276 83.3394 91.1025 83.2536 90.7066 83.0869C90.3109 82.9202 89.9524 82.6758 89.6525 82.3684C89.3525 82.061 89.1171 81.6967 88.9602 81.2968C88.8034 80.897 88.7281 80.4698 88.7388 80.0405L89.7397 39.7637C89.7502 39.341 89.844 38.9246 90.0154 38.5382C90.1869 38.1518 90.4328 37.8029 90.7392 37.5116C91.0455 37.22 91.4063 36.9918 91.8007 36.8399C92.1954 36.6879 92.6159 36.6152 93.0385 36.6258C93.4611 36.6364 93.8775 36.7299 94.264 36.9015C94.6504 37.0729 94.9992 37.3189 95.2906 37.6252C95.5821 37.9316 95.8103 38.2923 95.9622 38.6868C96.1143 39.0813 96.1869 39.5019 96.1764 39.9245L95.1756 80.2014C95.1546 81.041 94.8062 81.839 94.2048 82.4253C93.6035 83.0116 92.7969 83.3397 91.9572 83.3393Z" fill="#2A9CF5"/>
<path d="M102.646 81.5788C102.217 81.5789 101.792 81.4931 101.396 81.3264C101 81.1597 100.642 80.9156 100.342 80.6081C100.042 80.3009 99.8065 79.9367 99.6495 79.537C99.4927 79.1373 99.4172 78.7103 99.4277 78.281L100.273 44.2821C100.284 43.8595 100.377 43.443 100.549 43.0567C100.72 42.6703 100.966 42.3213 101.273 42.03C101.579 41.7386 101.939 41.5103 102.334 41.3584C102.729 41.2064 103.149 41.1336 103.572 41.1442C103.995 41.1548 104.411 41.2485 104.797 41.42C105.183 41.5914 105.533 41.8374 105.824 42.1437C106.116 42.4501 106.344 42.8108 106.495 43.2054C106.648 43.5998 106.721 44.0205 106.71 44.443L105.862 78.4409C105.841 79.2801 105.493 80.0778 104.893 80.664C104.292 81.2502 103.485 81.5785 102.646 81.5788Z" fill="#2A9CF5"/>
<path d="M113.184 78.1875C112.755 78.1876 112.329 78.1017 111.933 77.9351C111.538 77.7683 111.179 77.5239 110.88 77.2166C110.579 76.9091 110.344 76.5448 110.187 76.145C110.03 75.7451 109.955 75.3179 109.966 74.8887L110.956 35.0613C110.977 34.2077 111.337 33.3975 111.955 32.809C112.574 32.2204 113.401 31.9016 114.254 31.9229C115.108 31.9441 115.918 32.3035 116.507 32.9221C117.096 33.5405 117.414 34.3676 117.393 35.2211L116.397 75.0485C116.377 75.8873 116.029 76.6848 115.429 77.2712C114.829 77.8576 114.023 78.1863 113.184 78.1875Z" fill="#2A9CF5"/>
<path fill-rule="evenodd" clip-rule="evenodd" d="M76.9082 120.659C76.287 122.262 75.4803 124.95 74.4289 127.99C73.2306 131.479 71.4594 135.788 70.1045 139.699C70.289 140.537 70.7533 141.288 71.4209 141.827C72.0887 142.367 72.9201 142.663 73.7786 142.667C74.637 142.672 75.4714 142.383 76.1442 141.85C76.8171 141.317 77.2886 140.571 77.481 139.734C80.9987 128.491 83.4007 119.658 85.6343 109.776C83.2934 113.418 78.2695 117.095 76.9082 120.659Z" fill="#141736"/>
<path fill-rule="evenodd" clip-rule="evenodd" d="M112.08 11.8404L112.115 11.7664C100.991 5.93261 89.3525 4.83727 77.7771 9.70558C67.4439 14.0503 58.9947 22.7744 54.4332 34.854C48.7903 49.7926 55.448 69.7786 66.6555 78.3609C71.1894 81.6986 76.372 84.0498 81.8698 85.2632C80.6264 91.0769 79.4571 96.4205 78.365 101.338C78.754 101.159 79.1653 101.032 79.5879 100.963C82.4845 100.604 85.9646 101.571 86.8014 104.43C87.9461 99.0434 89.0886 93.2065 90.3631 86.4326C104.202 87.0108 114.617 81.9827 123.308 73.1408C139.286 56.8869 134.927 23.7269 112.08 11.8404ZM117.881 67.6256C115.004 70.4126 111.673 72.6907 108.033 74.3627C97.9326 78.8158 83.3717 77.8718 72.8455 70.1219C62.5467 62.5405 58.5151 48.2005 62.5306 37.9768C64.162 33.6359 66.6878 29.6865 69.944 26.3848C73.2002 23.0831 77.1142 20.5028 81.4321 18.8114C90.1571 15.7719 99.7104 16.1552 108.164 19.8842L108.2 19.8102C127.466 28.5566 131.166 54.9816 117.881 67.6224V67.6256Z" fill="#141736"/>
<path fill-rule="evenodd" clip-rule="evenodd" d="M100.125 35.8992C100.37 35.3628 112.743 4.68094 112.784 4.57365C121.065 3.96755 131.855 3.50089 140.156 3.33352C140.291 3.32877 140.424 3.29724 140.547 3.24066C140.671 3.18387 140.781 3.10328 140.872 3.00341C140.965 2.90354 141.036 2.78636 141.081 2.65898C141.127 2.53139 141.147 2.39607 141.14 2.26075C141.128 1.98805 141.008 1.73143 140.807 1.54685C140.605 1.36226 140.339 1.26487 140.067 1.2759C131.473 1.56241 119.898 1.97754 111.911 2.35619C111.694 2.36835 111.483 2.44173 111.305 2.56787C111.127 2.69412 110.988 2.86799 110.904 3.06958C109.132 7.20841 99.7042 30.9976 98.1776 35.1224C98.0744 35.3804 98.0777 35.6688 98.1871 35.9241C98.2965 36.1795 98.5028 36.381 98.7607 36.4844C99.0185 36.5877 99.307 36.5843 99.5624 36.4749C99.8178 36.3655 100.019 36.1592 100.123 35.9013L100.125 35.8992Z" fill="#2A9CF5"/>
<path fill-rule="evenodd" clip-rule="evenodd" d="M108.544 59.0647C108.999 60.0603 123.094 87.2588 124.431 89.6746C124.534 89.8668 124.689 90.0259 124.879 90.1335C125.069 90.2411 125.286 90.2929 125.504 90.2829C142.115 89.4247 149.338 89.0664 159.189 88.5257C159.325 88.5178 159.456 88.4835 159.578 88.4244C159.699 88.3655 159.808 88.2832 159.899 88.1823C159.988 88.0813 160.057 87.9636 160.101 87.836C160.145 87.7083 160.165 87.5733 160.156 87.4384C160.148 87.3035 160.114 87.1715 160.055 87.0499C159.996 86.9282 159.915 86.8194 159.813 86.7297C159.712 86.6398 159.595 86.5707 159.467 86.5264C159.34 86.4821 159.204 86.4634 159.069 86.4713C143.479 87.2405 139.81 87.5355 126.142 87.9925C125.198 86.0389 111.139 59.4305 110.395 58.0949C110.335 57.9667 110.25 57.8519 110.145 57.7575C110.039 57.663 109.916 57.591 109.782 57.5453C109.648 57.4999 109.506 57.4819 109.366 57.4926C109.225 57.5034 109.088 57.5425 108.962 57.6078C108.837 57.6731 108.725 57.763 108.636 57.8723C108.546 57.9817 108.48 58.1079 108.44 58.2435C108.4 58.3794 108.388 58.5218 108.406 58.6621C108.423 58.8024 108.468 58.9379 108.539 59.0604L108.544 59.0647Z" fill="#2A9CF5"/>
<path fill-rule="evenodd" clip-rule="evenodd" d="M32.72 71.5249C33.1492 70.2236 42.0329 41.3795 42.6122 39.2136C50.8288 37.8919 61.4999 36.4961 69.7732 35.6036C69.9075 35.587 70.0371 35.5441 70.1546 35.477C70.2722 35.41 70.3752 35.3202 70.4577 35.213C70.5403 35.1058 70.6007 34.9833 70.6355 34.8525C70.6703 34.7217 70.6787 34.5854 70.6603 34.4514C70.6243 34.1813 70.483 33.9365 70.2672 33.7701C70.0514 33.6037 69.7787 33.5294 69.5082 33.5631C61.3474 34.5233 49.4374 36.0381 41.5534 37.083C41.3373 37.1137 41.1341 37.2049 40.9677 37.3462C40.8011 37.4874 40.6781 37.6728 40.6125 37.8812C40.5761 37.9885 30.9146 70.1046 30.715 70.9231C30.6349 71.1889 30.6635 71.4758 30.7947 71.7206C30.9258 71.9654 31.1487 72.1481 31.4144 72.2287C31.6809 72.3057 31.9669 72.2752 32.2111 72.1436C32.4552 72.012 32.638 71.7898 32.72 71.5249Z" fill="#2A9CF5"/>
<path d="M183.811 0H143.367V3.64754H183.811V0Z" fill="#141736"/>
<path d="M167.482 5.46039H143.028V9.10793H167.482V5.46039Z" fill="#141736"/>
<path d="M192.071 83.5646H162.957V87.2121H192.074L192.071 83.5646Z" fill="#141736"/>
<path d="M187.41 89.3182H162.957V92.9661H187.41V89.3182Z" fill="#141736"/>
<path d="M187.41 77.8109H162.957V81.4584H187.41V77.8109Z" fill="#141736"/>
<path d="M0 72.1494H29.1177V75.7968H0V72.1494Z" fill="#141736"/>
<path d="M15.6626 77.6099H29.4576V81.2573H15.6626V77.6099Z" fill="#141736"/>
<path d="M4.22461 66.1035H28.6842V69.751H4.22461V66.1035Z" fill="#141736"/>
</svg>
