<svg width="1017" height="58" viewBox="0 0 1017 58" fill="none" xmlns="http://www.w3.org/2000/svg">
<path d="M24.805 5.47L31.295 6.955C28.985 15.645 25.08 24.28 20.68 29.725C19.525 28.57 16.885 26.425 15.4 25.435C19.58 20.705 22.935 13.115 24.805 5.47ZM23.265 29.945L29.645 31.265C28.105 38.25 25.245 45.29 22.165 49.745C20.9 48.7 18.095 46.995 16.555 46.17C19.635 42.32 22 36.05 23.265 29.945ZM26.015 15.15H48.565V21.255H23.54L26.015 15.15ZM32.34 17.845H38.885V49.58C38.885 52.77 38.335 54.585 36.355 55.685C34.43 56.73 31.735 57.005 28.215 57.005C27.885 55.08 26.895 52.165 25.96 50.35C28.27 50.46 30.58 50.405 31.35 50.405C32.065 50.405 32.34 50.24 32.34 49.525V17.845ZM40.81 31.375L46.75 29.395C49.61 35.06 51.975 42.375 52.745 47.38L46.42 49.58C45.815 44.63 43.505 37.04 40.81 31.375ZM46.805 15.15H47.685L48.73 14.985L53.35 15.81C52.69 20.32 51.7 25.435 50.985 28.735L45.32 27.745C45.815 24.775 46.42 19.88 46.805 16.03V15.15ZM13.035 5.525L19.25 7.45C15.675 16.855 9.955 26.755 3.96 33.025C3.355 31.43 1.595 27.8 0.44 26.205C5.445 21.2 10.23 13.39 13.035 5.525ZM7.7 20.705L13.97 14.435L14.025 14.49V56.895H7.7V20.705ZM59.015 18.175H101.09V24.83H59.015V18.175ZM98.285 18.175H105.27C105.27 18.175 105.215 20.375 105.16 21.31C104.445 42.54 103.73 50.46 101.53 53.21C99.99 55.3 98.395 55.905 96.085 56.235C93.995 56.565 90.585 56.51 87.23 56.4C87.12 54.42 86.185 51.45 84.92 49.47C88.33 49.8 91.52 49.8 92.95 49.8C94.05 49.8 94.655 49.58 95.37 48.92C97.02 47.215 97.735 39.02 98.285 19.44V18.175ZM76.12 5.415H82.83V12.895C82.83 24.995 81.29 43.915 62.92 55.96C61.82 54.42 59.29 52.11 57.695 51.01C74.8 40.34 76.12 23.51 76.12 12.84V5.415ZM62.425 8.99L68.2 6.68C70.235 9.1 72.655 12.565 73.7 14.875L67.54 17.515C66.66 15.26 64.405 11.685 62.425 8.99ZM81.51 32.53L87.065 29.945C89.485 33.025 92.455 37.26 93.72 40.065L87.835 42.98C86.68 40.175 83.875 35.775 81.51 32.53ZM124.08 5.525L130.295 7.45C126.72 16.91 120.945 26.92 114.895 33.3C114.29 31.705 112.475 28.075 111.375 26.48C116.435 21.42 121.22 13.445 124.08 5.525ZM119.02 20.705L125.455 14.27V14.325V56.895H119.02V20.705ZM128.205 23.565H162.855V30.055H128.205V23.565ZM142.395 6.13H149.27V56.95H142.395V6.13ZM194.59 18.78L202.015 21.915C196.295 32.255 188.375 44.19 181.94 51.89L176.22 49.03C182.6 41 190.19 28.625 194.59 18.78ZM170.5 47.545C181.06 47.05 197.395 46.005 212.025 44.905L211.915 51.395C197.615 52.66 182.16 53.76 171.6 54.53L170.5 47.545ZM198.22 37.205L204.38 33.74C209.77 39.57 215.435 47.325 218.075 52.715L211.475 56.895C209.055 51.45 203.39 43.09 198.22 37.205ZM187.385 5.58L194.535 8.22C189.035 17.13 180.73 26.975 172.15 33.245C170.885 31.76 168.41 29.505 166.76 28.24C175.065 22.685 183.37 13.115 187.385 5.58ZM237.38 24.17H272.745V29.835H237.38V24.17ZM243.98 12.18H270.435V17.735H243.98V12.18ZM252.45 5.58H258.995V26.315H252.45V5.58ZM243.155 7.01L249.425 8.33C247.83 13.995 244.97 19.605 242 23.125C240.735 22.135 238.095 20.375 236.555 19.605C239.58 16.58 241.89 11.795 243.155 7.01ZM256.685 27.525H263.175V39.515C263.175 41.055 263.285 41.22 264.22 41.22C264.55 41.22 266.035 41.22 266.475 41.22C267.41 41.22 267.63 40.56 267.795 35.5C269.005 36.6 271.755 37.59 273.515 38.03C272.91 45.4 271.26 47.325 267.19 47.325C266.145 47.325 264.055 47.325 263.065 47.325C257.785 47.325 256.685 45.345 256.685 39.57V27.525ZM246.785 27.305H253.385C252.56 36.27 250.415 43.475 240.24 47.71C239.525 46.005 237.71 43.53 236.28 42.265C244.805 39.185 246.125 33.905 246.785 27.305ZM222.365 10.585L227.425 6.9C230.505 9.375 234.3 13.005 236.06 15.59L230.615 19.77C229.075 17.075 225.445 13.28 222.365 10.585ZM234.905 26.535V47.435H228.58V32.64H222.475V26.535H234.905ZM234.3 44.96C236.005 44.96 237.38 46.39 240.185 48.04C243.65 50.185 248.38 50.46 254.1 50.46C259.6 50.46 268.125 50.02 273.46 49.25C272.745 51.01 271.7 54.255 271.645 56.015C267.575 56.29 259.325 56.62 253.935 56.62C247.39 56.62 243.045 55.905 239.36 53.815C237.105 52.44 235.345 50.845 234.135 50.845C232.1 50.845 229.075 54.09 226.105 57.5L221.76 51.78C225.94 47.93 230.78 44.96 234.3 44.96ZM276.375 33.08C281.105 32.035 288.035 30.165 294.745 28.35L295.57 34.29C289.465 36.105 282.975 37.975 277.805 39.405L276.375 33.08ZM277.145 15.645H295.625V21.695H277.145V15.645ZM283.36 5.36H289.795V49.91C289.795 52.99 289.245 54.695 287.54 55.74C285.78 56.785 283.305 56.95 279.675 56.95C279.455 55.245 278.685 52.55 277.915 50.735C279.785 50.845 281.82 50.845 282.48 50.79C283.14 50.79 283.36 50.57 283.36 49.855V5.36ZM297 7.505H320.87V13.335H297V7.505ZM319.66 7.505H320.76L321.805 7.285L325.765 9.375C320.595 20.65 309.265 28.075 297.385 31.815C296.725 30.22 295.185 27.8 293.975 26.535C305.03 23.73 315.755 17.02 319.66 8.44V7.505ZM304.7 10.42C309.1 18.175 318.065 24.005 329.23 26.37C327.91 27.69 326.095 30.22 325.215 31.87C313.72 28.735 304.865 21.86 299.64 12.18L304.7 10.42ZM297.66 33.465H324.39V39.24H297.66V33.465ZM294.91 43.035H327.91V48.92H294.91V43.035ZM307.89 29.175H314.545V57.005H307.89V29.175ZM354.31 24.115H361.295V49.305C361.295 53.045 360.36 54.86 357.61 55.85C354.915 56.84 350.955 56.95 345.675 56.95C345.29 55.025 344.025 52.055 342.98 50.24C346.885 50.405 351.395 50.405 352.66 50.405C353.87 50.405 354.31 50.075 354.31 49.14V24.115ZM335.5 9.155H373.945V15.645H335.5V9.155ZM371.47 9.155H373.23L374.825 8.715L379.995 12.565C375.045 18.615 367.785 25.6 361.02 29.835C359.975 28.405 357.83 26.205 356.51 25.16C362.23 21.53 368.72 14.93 371.47 10.75V9.155ZM422.689 24.83C422.579 24.7567 422.231 24.6467 421.644 24.5C421.094 24.3533 420.416 24.2067 419.609 24.06C418.803 23.9133 417.959 23.84 417.079 23.84C413.889 23.84 411.433 24.8667 409.709 26.92C407.986 28.9733 407.124 31.9067 407.124 35.72C407.124 39.57 408.004 42.54 409.764 44.63C411.524 46.72 413.963 47.765 417.079 47.765C417.996 47.765 418.858 47.655 419.664 47.435C420.471 47.215 421.149 47.0133 421.699 46.83C422.249 46.61 422.579 46.4817 422.689 46.445L423.844 41.66L429.179 42.87L427.529 50.68C427.529 50.68 427.089 50.8817 426.209 51.285C425.329 51.6883 424.101 52.0917 422.524 52.495C420.948 52.8983 419.133 53.1 417.079 53.1C413.779 53.1 410.883 52.4767 408.389 51.23C405.933 49.9467 404.008 48.0217 402.614 45.455C401.221 42.8517 400.524 39.6067 400.524 35.72C400.524 32.1267 401.203 29.0467 402.559 26.48C403.916 23.9133 405.841 21.9517 408.334 20.595C410.828 19.2017 413.724 18.505 417.024 18.505C419.334 18.505 421.278 18.7433 422.854 19.22C424.468 19.66 425.678 20.1183 426.484 20.595C427.291 21.0717 427.694 21.31 427.694 21.31L429.234 29.065L423.844 30.275L422.689 24.83ZM433.77 19.605H448.015L459.73 42.87V25.16H455.495V19.605H470.62V25.16H465.45V52H458.08L444.165 25.105L444.22 46.445H448.84V52H433.715V46.445H438.5V25.16H433.77V19.605ZM474.428 52V46.445H479.048V25.16H474.428V19.605H489.003C492.34 19.605 494.943 20.045 496.813 20.925C498.683 21.7683 499.985 22.9967 500.718 24.61C501.451 26.1867 501.818 28.0567 501.818 30.22C501.818 33.7767 500.865 36.4533 498.958 38.25C497.088 40.01 494.173 40.89 490.213 40.89H485.428V46.445H488.288V52H474.428ZM485.483 35.39H488.728C490.305 35.39 491.551 35.2433 492.468 34.95C493.421 34.6567 494.118 34.1433 494.558 33.41C494.998 32.64 495.218 31.595 495.218 30.275C495.218 28.8817 494.961 27.8183 494.448 27.085C493.935 26.3517 493.201 25.8567 492.248 25.6C491.295 25.3067 490.121 25.16 488.728 25.16H485.483V35.39ZM495.713 52L489.333 40.23L495.273 39.24L499.618 46.445H505.118V52H495.713ZM522.178 19.605H536.698L544.068 39.68L550.723 19.605H565.408V25.16H560.733V46.445H565.408V52H550.833V46.445H554.353V24.115L552.153 31.485L546.323 48.095H541.648L534.938 30.825L532.738 24.5L532.683 46.445H536.313V52H522.123V46.445H526.798V25.16H522.178V19.605ZM568.001 52V46.445H573.446L581.751 25.16H577.131V19.605H589.616L599.736 46.445H604.686V52H590.441V46.445H593.356L591.651 41.715H580.706L579.001 46.445H582.191V52H568.001ZM582.301 37.37H590.166L586.316 25.875L582.301 37.37ZM607.309 52V46.445H611.929V25.16H607.309V19.605H621.884C625.22 19.605 627.824 20.045 629.694 20.925C631.564 21.7683 632.865 22.9967 633.599 24.61C634.332 26.1867 634.699 28.0567 634.699 30.22C634.699 33.7767 633.745 36.4533 631.839 38.25C629.969 40.01 627.054 40.89 623.094 40.89H618.309V46.445H621.169V52H607.309ZM618.364 35.39H621.609C623.185 35.39 624.432 35.2433 625.349 34.95C626.302 34.6567 626.999 34.1433 627.439 33.41C627.879 32.64 628.099 31.595 628.099 30.275C628.099 28.8817 627.842 27.8183 627.329 27.085C626.815 26.3517 626.082 25.8567 625.129 25.6C624.175 25.3067 623.002 25.16 621.609 25.16H618.364V35.39ZM628.594 52L622.214 40.23L628.154 39.24L632.499 46.445H637.999V52H628.594ZM641.845 19.605H655.98V25.16H652.845V33.19H656.915L662.855 25.16H660.105V19.605H674.405V25.16H669.29L661.7 34.785L670.225 46.445H675.725V52H659.5V46.445H663.35L657.63 38.525H652.845V46.445H655.98V52H641.845V46.445H646.52V25.16H641.845V19.605ZM679.981 19.605H704.951L708.196 29.34L702.971 31.1L700.881 25.16H691.036V32.75H700.386V38.25H691.036V46.445H702.256L704.291 40.945L709.461 42.76L706.271 52H679.926V46.445H684.601L684.656 25.16H679.981V19.605ZM712.837 19.605H742.152V30.605H736.487V25.16H730.712L730.657 46.445H735.332V52H719.547V46.445H724.222L724.277 25.16H718.502V30.605H712.837V19.605ZM760.775 19.605C765.028 19.605 768.273 20.5033 770.51 22.3C772.747 24.0967 773.865 26.7183 773.865 30.165C773.865 33.685 772.747 36.38 770.51 38.25C768.273 40.0833 765.028 41 760.775 41H757.42V46.445H762.975V52H746.42V46.445H751.04V25.16H746.42V19.605H760.775ZM760.72 35.995C765.047 35.995 767.21 34.1067 767.21 30.33C767.21 26.8833 765.047 25.16 760.72 25.16H757.475V35.995H760.72ZM776.391 19.605H793.661V25.16H787.996L787.941 46.445H796.686L798.666 40.945L803.946 42.76L800.701 52H776.391V46.445H781.671V25.16H776.391V19.605ZM805.35 52V46.445H810.795L819.1 25.16H814.48V19.605H826.965L837.085 46.445H842.035V52H827.79V46.445H830.705L829 41.715H818.055L816.35 46.445H819.54V52H805.35ZM819.65 37.37H827.515L823.665 25.875L819.65 37.37ZM864.784 24.83C864.674 24.7567 864.326 24.6467 863.739 24.5C863.189 24.3533 862.511 24.2067 861.704 24.06C860.897 23.9133 860.054 23.84 859.174 23.84C855.984 23.84 853.527 24.8667 851.804 26.92C850.081 28.9733 849.219 31.9067 849.219 35.72C849.219 39.57 850.099 42.54 851.859 44.63C853.619 46.72 856.057 47.765 859.174 47.765C860.091 47.765 860.952 47.655 861.759 47.435C862.566 47.215 863.244 47.0133 863.794 46.83C864.344 46.61 864.674 46.4817 864.784 46.445L865.939 41.66L871.274 42.87L869.624 50.68C869.624 50.68 869.184 50.8817 868.304 51.285C867.424 51.6883 866.196 52.0917 864.619 52.495C863.042 52.8983 861.227 53.1 859.174 53.1C855.874 53.1 852.977 52.4767 850.484 51.23C848.027 49.9467 846.102 48.0217 844.709 45.455C843.316 42.8517 842.619 39.6067 842.619 35.72C842.619 32.1267 843.297 29.0467 844.654 26.48C846.011 23.9133 847.936 21.9517 850.429 20.595C852.922 19.2017 855.819 18.505 859.119 18.505C861.429 18.505 863.372 18.7433 864.949 19.22C866.562 19.66 867.772 20.1183 868.579 20.595C869.386 21.0717 869.789 21.31 869.789 21.31L871.329 29.065L865.939 30.275L864.784 24.83ZM875.865 19.605H900.835L904.08 29.34L898.855 31.1L896.765 25.16H886.92V32.75H896.27V38.25H886.92V46.445H898.14L900.175 40.945L905.345 42.76L902.155 52H875.81V46.445H880.485L880.54 25.16H875.865V19.605ZM920.229 55.85H975.229V0.85H920.229V55.85ZM998.494 37.865C997.339 29.23 1009.05 27.305 1009.05 21.97C1009.05 18.615 1006.41 16.745 1002.07 16.745C998.714 16.745 995.964 18.285 993.269 21.09L988.759 16.965C992.279 12.895 997.119 10.2 1003 10.2C1010.98 10.2 1016.81 13.94 1016.81 21.255C1016.81 29.285 1004.76 30.275 1005.64 37.865H998.494ZM1002.12 52.55C999.264 52.55 997.229 50.515 997.229 47.655C997.229 44.795 999.319 42.815 1002.12 42.815C1004.87 42.815 1006.96 44.795 1006.96 47.655C1006.96 50.515 1004.87 52.55 1002.12 52.55Z" fill="white"/>
</svg>
