<svg width="28" height="27" viewBox="0 0 28 27" fill="none" xmlns="http://www.w3.org/2000/svg">
<path d="M14.1348 2.51208C17.648 2.51208 18.0647 2.52552 19.4518 2.59051C20.886 2.65773 22.363 2.9916 23.408 4.05931C24.4628 5.1371 24.7797 6.63167 24.8455 8.1016C24.9091 9.51886 24.9223 9.9446 24.9223 13.5343C24.9223 17.1239 24.9091 17.5497 24.8455 18.9669C24.7808 20.4245 24.4464 21.9482 23.408 23.0092C22.3531 24.087 20.8915 24.4108 19.4518 24.478C18.0647 24.543 17.648 24.5564 14.1348 24.5564C10.6215 24.5564 10.2048 24.543 8.81775 24.478C7.40215 24.4119 5.89115 24.0624 4.86152 23.0092C3.81215 21.937 3.48978 20.4279 3.42399 18.9669C3.36039 17.5497 3.34723 17.1239 3.34723 13.5343C3.34723 9.9446 3.36039 9.51886 3.42399 8.1016C3.48868 6.6496 3.82641 5.11694 4.86152 4.05931C5.91418 2.98376 7.38241 2.65773 8.81775 2.59051C10.2048 2.52552 10.6215 2.51208 14.1348 2.51208ZM14.1348 0.0898438C10.5612 0.0898438 10.1127 0.105529 8.7092 0.17051C6.67516 0.265742 4.65537 0.843852 3.18495 2.34627C1.70904 3.85428 1.14872 5.91352 1.05551 7.99068C0.991914 9.42475 0.976562 9.88298 0.976562 13.5343C0.976562 17.1855 0.991914 17.6438 1.05551 19.0778C1.14872 21.1539 1.71671 23.2232 3.18495 24.7223C4.65976 26.2292 6.67845 26.8028 8.7092 26.898C10.1127 26.963 10.5612 26.9787 14.1348 26.9787C17.7083 26.9787 18.1568 26.963 19.5603 26.898C21.5933 26.8028 23.6152 26.2236 25.0846 24.7223C26.5616 23.2131 27.1208 21.155 27.214 19.0778C27.2776 17.6438 27.293 17.1855 27.293 13.5343C27.293 9.88298 27.2776 9.42475 27.214 7.99068C27.1208 5.9124 26.5539 3.84756 25.0846 2.34627C23.6119 0.841611 21.5878 0.264621 19.5603 0.17051C18.1568 0.105529 17.7083 0.0898438 14.1348 0.0898438Z" fill="white"/>
<path d="M14.1356 6.63184C10.4042 6.63184 7.37891 9.72293 7.37891 13.5355C7.37891 17.3482 10.4042 20.4393 14.1356 20.4393C17.8671 20.4393 20.8924 17.3482 20.8924 13.5355C20.8924 9.72293 17.8671 6.63184 14.1356 6.63184ZM14.1356 18.017C11.7134 18.017 9.74958 16.0104 9.74958 13.5355C9.74958 11.0607 11.7134 9.05407 14.1356 9.05407C16.5578 9.05407 18.5217 11.0607 18.5217 13.5355C18.5217 16.0104 16.5578 18.017 14.1356 18.017Z" fill="white"/>
<path d="M21.161 7.96983C22.0331 7.96983 22.74 7.24751 22.74 6.35649C22.74 5.46548 22.0331 4.74316 21.161 4.74316C20.289 4.74316 19.582 5.46548 19.582 6.35649C19.582 7.24751 20.289 7.96983 21.161 7.96983Z" fill="white"/>
</svg>
