<svg width="24" height="13" viewBox="0 0 24 13" fill="none" xmlns="http://www.w3.org/2000/svg">
<path d="M0.877455 8.41679L4.74788 12.3272C4.84085 12.421 4.95147 12.4954 5.07334 12.5461C5.19522 12.5969 5.32593 12.623 5.45796 12.623C5.58998 12.623 5.72071 12.5969 5.84258 12.5461C5.96445 12.4954 6.07507 12.421 6.16804 12.3272C6.35431 12.1398 6.45886 11.8864 6.45886 11.6221C6.45886 11.3579 6.35431 11.1044 6.16804 10.9171L2.60765 7.32667L22.9999 7.32667C23.2651 7.32667 23.5195 7.2213 23.7071 7.03374C23.8946 6.84618 24 6.5918 24 6.32656C24 6.06131 23.8946 5.80693 23.7071 5.61937C23.5195 5.43181 23.2651 5.32645 22.9999 5.32645L2.54764 5.32645L6.16804 1.71605C6.26178 1.62307 6.33618 1.51246 6.38695 1.39059C6.43773 1.26872 6.46387 1.138 6.46387 1.00597C6.46387 0.873944 6.43773 0.743224 6.38695 0.621351C6.33618 0.499479 6.26178 0.388865 6.16804 0.295892C6.07507 0.202153 5.96445 0.12775 5.84258 0.0769768C5.72071 0.0262022 5.58998 6.19888e-05 5.45796 6.19888e-05C5.32593 6.19888e-05 5.19522 0.0262022 5.07334 0.0769768C4.95147 0.12775 4.84085 0.202153 4.74788 0.295892L0.877455 4.17632C0.315592 4.73888 0 5.50146 0 6.29655C0 7.09164 0.315592 7.85422 0.877455 8.41679Z" fill="black"/>
</svg>
