<svg width="48" height="259" viewBox="0 0 48 259" fill="none" xmlns="http://www.w3.org/2000/svg">
<path d="M40.8103 29.9701L-178.649 178.967C-186.143 184.054 -196.341 182.104 -201.429 174.61C-206.517 167.116 -204.566 156.917 -197.072 151.83L22.387 2.83325C29.8811 -2.25433 40.0795 -0.304011 45.1671 7.19004C50.2547 14.6841 48.3043 24.8825 40.8103 29.9701Z" fill="#2A9CF5" fill-opacity="0.13"/>
<path d="M17.0725 106.959L-202.387 255.955C-209.881 261.043 -220.079 259.092 -225.167 251.598C-230.254 244.104 -228.304 233.906 -220.81 228.818L-1.35075 79.8218C6.1433 74.7342 16.3417 76.6845 21.4293 84.1786C26.5169 91.6726 24.5666 101.871 17.0725 106.959Z" fill="#2A9CF5"/>
</svg>
