<svg width="18" height="10" viewBox="0 0 18 10" fill="none" xmlns="http://www.w3.org/2000/svg">
<path d="M17.3587 3.07381L14.5303 0.216184C14.4623 0.147683 14.3815 0.0933115 14.2924 0.0562072C14.2034 0.0191029 14.1079 0 14.0114 0C13.9149 0 13.8194 0.0191029 13.7303 0.0562072C13.6412 0.0933115 13.5604 0.147683 13.4925 0.216184C13.3564 0.353118 13.2799 0.538353 13.2799 0.731433C13.2799 0.924513 13.3564 1.10975 13.4925 1.24668L16.0943 3.87043H1.19228C0.998442 3.87043 0.812548 3.94743 0.675487 4.08449C0.538426 4.22155 0.461426 4.40745 0.461426 4.60128C0.461426 4.79511 0.538426 4.98101 0.675487 5.11807C0.812548 5.25513 0.998442 5.33213 1.19228 5.33213H16.1382L13.4925 7.9705C13.424 8.03844 13.3696 8.11927 13.3325 8.20833C13.2954 8.29739 13.2763 8.39292 13.2763 8.4894C13.2763 8.58588 13.2954 8.68141 13.3325 8.77047C13.3696 8.85953 13.424 8.94036 13.4925 9.00831C13.5604 9.07681 13.6412 9.13118 13.7303 9.16828C13.8194 9.20539 13.9149 9.22449 14.0114 9.22449C14.1079 9.22449 14.2034 9.20539 14.2924 9.16828C14.3815 9.13118 14.4623 9.07681 14.5303 9.00831L17.3587 6.17261C17.7693 5.7615 17.9999 5.20423 17.9999 4.62321C17.9999 4.04218 17.7693 3.48491 17.3587 3.07381Z" fill="black"/>
</svg>
