<svg width="174" height="556" viewBox="0 0 174 556" fill="none" xmlns="http://www.w3.org/2000/svg">
<path d="M158.507 64.3869L-312.973 384.487C-329.073 395.417 -350.983 391.227 -361.913 375.127C-372.843 359.027 -368.653 337.117 -352.553 326.187L118.927 6.08687C135.027 -4.84313 156.937 -0.65313 167.867 15.4469C178.797 31.5469 174.607 53.4569 158.507 64.3869Z" fill="#2A9CF5" fill-opacity="0.13"/>
<path d="M107.51 229.787L-363.97 549.887C-380.07 560.817 -401.98 556.627 -412.91 540.527C-423.84 524.427 -419.65 502.517 -403.55 491.587L67.9298 171.487C84.0298 160.557 105.94 164.747 116.87 180.847C127.8 196.947 123.61 218.857 107.51 229.787Z" fill="#2A9CF5"/>
</svg>
