<svg width="22" height="17" viewBox="0 0 22 17" fill="none" xmlns="http://www.w3.org/2000/svg">
<path d="M21.6665 0.902778C21.6665 0.40625 21.2603 0 20.7637 0H5.4165C4.91998 0 4.51373 0.40625 4.51373 0.902778C4.51373 1.39931 4.91998 1.80556 5.4165 1.80556H20.7637C21.2603 1.80556 21.6665 1.39931 21.6665 0.902778ZM5.4165 14.4444H20.7637C21.2603 14.4444 21.6665 14.8507 21.6665 15.3472C21.6665 15.8438 21.2603 16.25 20.7637 16.25H5.4165C4.91998 16.25 4.51373 15.8438 4.51373 15.3472C4.51373 14.8507 4.91998 14.4444 5.4165 14.4444ZM0.902617 7.22222H16.2498C16.7464 7.22222 17.1526 7.62847 17.1526 8.125C17.1526 8.62153 16.7464 9.02778 16.2498 9.02778H0.902617C0.406088 9.02778 -0.000162125 8.62153 -0.000162125 8.125C-0.000162125 7.62847 0.406088 7.22222 0.902617 7.22222Z" fill="white"/>
</svg>
