<svg width="32" height="23" viewBox="0 0 32 23" fill="none" xmlns="http://www.w3.org/2000/svg">
<path d="M22.5079 0.858398C19.939 0.858398 17.9314 2.83499 16.113 5.34641C13.6146 2.0961 11.5261 0.858398 9.02636 0.858398C3.92901 0.858398 0.0234375 7.6351 0.0234375 14.8092C0.0234375 19.2986 2.14853 22.1301 5.70949 22.1301C8.27187 22.1301 10.115 20.8964 13.3914 15.044C13.3914 15.044 14.7568 12.5792 15.6966 10.8827C16.0256 11.4256 16.3715 12.0097 16.737 12.6379L18.2734 15.2787C21.2665 20.3949 22.9334 22.1301 25.9553 22.1301C29.4236 22.1301 31.3542 19.2599 31.3542 14.6772C31.3516 7.16562 27.3585 0.858398 22.5079 0.858398ZM10.8917 13.4595C8.23532 17.7141 7.31636 18.6677 5.83742 18.6677C4.31539 18.6677 3.41079 17.302 3.41079 14.8679C3.41079 9.6597 5.95228 4.33544 8.98198 4.33544C10.6228 4.33544 11.9934 5.30373 14.0937 8.37532C12.1004 11.4989 10.8917 13.4595 10.8917 13.4595ZM26.0245 18.6677C24.5116 18.6677 23.7884 17.6474 20.9167 12.9247L19.0801 9.79441C18.5827 8.96883 18.1063 8.20993 17.6468 7.51373C19.302 4.90361 20.6674 3.60189 22.2925 3.60189C25.6668 3.60189 28.3663 8.67808 28.3663 14.9119C28.3649 17.2887 27.6039 18.6677 26.0245 18.6677Z" fill="white"/>
</svg>
