<svg width="53" height="66" viewBox="0 0 53 66" fill="none" xmlns="http://www.w3.org/2000/svg">
<path fill-rule="evenodd" clip-rule="evenodd" d="M25.6942 0.156868C25.1064 0.485852 25.0533 0.764332 25.0485 3.55003C25.0436 6.39047 25.1116 6.73115 25.7403 7.02043C26.3931 7.32088 27.1046 7.10422 27.4075 6.51282C27.6454 6.048 27.6698 1.19728 27.4367 0.680672C27.1582 0.0630557 26.3146 -0.190493 25.6942 0.156868ZM12.4967 4.47273C12.1045 4.63285 11.6839 5.22875 11.6839 5.62443C11.6839 6.1003 13.8321 9.84943 14.2332 10.0738C15.0893 10.5525 16.1373 9.93078 16.1373 8.94434C16.1373 8.54776 14.197 5.14972 13.7139 4.70019C13.3276 4.34075 12.9794 4.27572 12.4967 4.47273ZM38.9345 4.68618C38.4483 5.13789 36.4955 8.53748 36.4955 8.93201C36.4955 9.93027 37.5381 10.5556 38.3995 10.0738C38.811 9.84365 40.9489 6.09979 40.9489 5.60914C40.9489 5.10242 40.3595 4.48404 39.7894 4.39267C39.4044 4.33085 39.2655 4.37853 38.9345 4.68618ZM0.484407 14.5954C0.240616 14.8175 0.0690978 15.1214 0.0232916 15.4131C-0.0379105 15.8021 0.00916812 15.9419 0.313906 16.2754C0.76726 16.7716 4.13567 18.7388 4.53303 18.7395C5.50476 18.7409 6.10546 17.7213 5.65312 16.8379C5.42689 16.3961 1.75591 14.242 1.22901 14.242C1.01907 14.242 0.713056 14.3872 0.484407 14.5954ZM49.1023 15.3665C47.1497 16.4953 46.8019 16.8109 46.8019 17.4548C46.8019 18.1301 47.425 18.7398 48.115 18.7398C48.5057 18.7398 51.8716 16.7676 52.3189 16.2766C52.6235 15.9422 52.6707 15.802 52.6095 15.4131C52.5189 14.8364 51.9069 14.242 51.4038 14.242C51.1886 14.242 50.2761 14.6878 49.1023 15.3665ZM13.6711 16.3043C12.8659 16.5087 11.72 17.1936 11.1637 17.8031C10.8781 18.1162 10.463 18.7587 10.2416 19.2308L9.83891 20.0892L9.7982 23.6526L9.75735 27.2161L8.99239 27.6278C7.71707 28.3144 7.30583 28.9207 5.57398 32.6685C3.68664 36.7531 3.48 37.4651 3.57594 39.5552C3.67722 41.7606 4.28428 43.3587 5.618 44.9303C5.98 45.3568 7.92243 47.2759 9.93434 49.1947L13.5925 52.6834V58.7088C13.5925 65.1798 13.5995 65.2529 14.2471 65.5912C14.7571 65.8576 20.6984 65.8576 21.2084 65.5912C22.0552 65.1488 22.0552 63.8296 21.2084 63.3872C20.9419 63.2481 20.2915 63.2041 18.4975 63.2041H16.1373L16.1328 57.5176C16.1294 53.2336 16.0893 51.7601 15.9702 51.5435C15.8832 51.3855 15.0121 50.4939 14.0342 49.5623C8.4548 44.2461 7.27822 43.0514 6.88416 42.3012C6.23486 41.0653 6.04489 40.2008 6.11398 38.7957C6.18333 37.3852 6.23537 37.2425 8.22285 33.0103C9.34637 30.6177 9.50669 30.3466 10.0089 29.9903C10.49 29.649 10.6691 29.5989 11.4085 29.5989C12.2484 29.5989 12.3165 29.6273 18.6184 32.6001C22.1175 34.2507 25.0057 35.6256 25.0365 35.6553C25.0674 35.6851 24.7811 36.0298 24.4003 36.4213C23.1712 37.6852 21.2803 38.3802 19.4866 38.2274C18.4423 38.1385 17.634 37.8502 15.3284 36.7445C13.4268 35.8326 12.996 35.7717 12.4375 36.3357C11.9376 36.8408 11.9292 37.4781 12.4155 38.0079C12.797 38.4235 16.1135 40.0208 17.531 40.4717C18.0251 40.6289 18.8959 40.766 19.6717 40.8086L20.9796 40.8807L21.4639 41.4725C23.5557 44.0282 24.789 47.1895 24.9923 50.5159C25.0795 51.9423 25.2197 52.3615 25.6918 52.6081C26.1262 52.8351 26.452 52.8441 26.8925 52.6413C27.6137 52.3095 27.7458 51.3561 27.3964 49.0038C26.9685 46.1215 26.0917 43.7604 24.6055 41.4881L23.6814 40.075L24.2672 39.7325C25.7418 38.8708 27.2348 37.351 27.8229 36.1129C27.982 35.778 28.0801 35.7043 28.284 35.7664C29.7935 36.2264 31.137 36.1459 32.3645 35.522L33.188 35.1033L33.4987 35.6388C33.9355 36.3916 34.7321 37.0778 35.7165 37.5487C36.4813 37.9147 36.6707 37.9515 37.7679 37.9465C38.6058 37.9426 39.1232 37.8757 39.4539 37.7281C39.7921 37.5773 39.9307 37.5602 39.93 37.6694C39.9273 38.0756 39.2279 41.1468 38.5401 43.7714C36.6706 50.9069 36.6065 51.3618 36.5294 58.0316L36.4695 63.2041H34.1223C32.3397 63.2041 31.6907 63.2482 31.4244 63.3872C30.5776 63.8296 30.5776 65.1488 31.4244 65.5912C31.9344 65.8576 37.8757 65.8576 38.3857 65.5912C39.0256 65.257 39.0403 65.1207 39.0403 59.5669C39.0403 52.4558 39.1456 51.6043 40.8317 45.0645C42.7307 37.6999 42.7939 37.2055 42.7939 29.7208V23.9315L42.3186 22.9602C41.7463 21.7904 41.0097 21.062 39.8267 20.4959C39.0567 20.1275 38.8621 20.0892 37.7599 20.0892C36.6202 20.0892 36.485 20.1184 35.6274 20.5482L34.7118 21.0073L34.4019 20.4732C33.9659 19.7218 33.1687 19.0355 32.1851 18.5648C31.4231 18.2002 31.2255 18.1616 30.1256 18.1616C28.9859 18.1616 28.8506 18.1907 27.993 18.6206L27.0774 19.0796L26.7676 18.5455C26.3315 17.7941 25.5344 17.1079 24.5507 16.6372C23.7901 16.2732 23.5903 16.2339 22.4992 16.2339C21.4111 16.2339 21.2074 16.2738 20.4574 16.6327C19.9992 16.8519 19.4123 17.2193 19.1532 17.4491L18.682 17.8669L18.2109 17.4491C17.4006 16.7306 16.274 16.2804 15.151 16.2265C14.6087 16.2004 13.9428 16.2355 13.6711 16.3043ZM14.001 18.8775C13.4292 19.0542 12.6199 19.9035 12.4564 20.4985C12.3789 20.7799 12.3212 22.2888 12.3208 24.0409L12.3201 27.093L12.6064 27.0937C12.7639 27.0942 13.8822 27.5569 15.0917 28.1218C16.3011 28.6869 17.3203 29.1491 17.3565 29.1491C17.3926 29.1491 17.4051 27.1974 17.3841 24.8119C17.3463 20.5027 17.3441 20.4715 17.0441 19.9842C16.444 19.0093 15.1257 18.5299 14.001 18.8775ZM21.6354 18.8775C21.0505 19.0583 20.2501 19.907 20.0868 20.5197C19.9995 20.8474 19.9631 22.7014 19.9847 25.7347L20.0181 30.4414L22.7219 31.7134C24.2091 32.4129 25.4257 32.9644 25.4257 32.939C25.4257 32.9134 25.3554 32.7298 25.2695 32.5308C25.1569 32.2703 25.0945 30.5321 25.0468 26.3219L24.9804 20.4747L24.6784 19.9842C24.0784 19.0093 22.7601 18.5299 21.6354 18.8775ZM29.2698 20.8051C28.6762 20.9886 27.8846 21.8344 27.7165 22.4647C27.6237 22.8133 27.5892 24.4711 27.6144 27.387C27.6522 31.7588 27.6541 31.7863 27.9543 32.2741C28.1204 32.5439 28.4885 32.9198 28.7721 33.1094C29.2018 33.3966 29.4292 33.4542 30.1336 33.4542C30.838 33.4542 31.0654 33.3966 31.495 33.1094C31.7787 32.9198 32.1468 32.5439 32.3128 32.2741L32.6147 31.7836V27.093V22.4024L32.3128 21.9118C31.7127 20.937 30.3944 20.4575 29.2698 20.8051ZM36.9041 22.7328C36.3105 22.9163 35.519 23.762 35.3509 24.3923C35.258 24.741 35.2235 26.3988 35.2487 29.3146C35.2865 33.6864 35.2884 33.7139 35.5887 34.2017C35.7548 34.4716 36.1229 34.8475 36.4065 35.037C36.8362 35.3242 37.0635 35.3818 37.7679 35.3818C38.4723 35.3818 38.6997 35.3242 39.1294 35.037C39.413 34.8475 39.7811 34.4716 39.9472 34.2017L40.2491 33.7112V29.0206V24.33L39.9472 23.8395C39.3471 22.8646 38.0288 22.3851 36.9041 22.7328ZM25.6942 63.3835C24.5912 64.001 25.0527 65.7743 26.3164 65.7743C26.9611 65.7743 27.5888 65.1465 27.5888 64.5017C27.5888 63.5368 26.5331 62.9138 25.6942 63.3835Z" fill="white"/>
</svg>
