<svg width="24" height="13" viewBox="0 0 24 13" fill="none" xmlns="http://www.w3.org/2000/svg">
<path d="M23.1225 4.20626L19.2521 0.295831C19.1591 0.202092 19.0485 0.127689 18.9267 0.0769151C18.8048 0.0261409 18.6741 0 18.542 0C18.41 0 18.2793 0.0261409 18.1574 0.0769151C18.0355 0.127689 17.9249 0.202092 17.832 0.295831C17.6457 0.483214 17.5411 0.736694 17.5411 1.00091C17.5411 1.26512 17.6457 1.5186 17.832 1.70599L21.3924 5.29638H1.00011C0.734864 5.29638 0.480482 5.40175 0.292925 5.58931C0.105368 5.77686 0 6.03125 0 6.29649C0 6.56174 0.105368 6.81612 0.292925 7.00368C0.480482 7.19123 0.734864 7.2966 1.00011 7.2966H21.4524L17.832 10.907C17.7382 11 17.6638 11.1106 17.613 11.2325C17.5623 11.3543 17.5361 11.485 17.5361 11.6171C17.5361 11.7491 17.5623 11.8798 17.613 12.0017C17.6638 12.1236 17.7382 12.2342 17.832 12.3272C17.9249 12.4209 18.0355 12.4953 18.1574 12.5461C18.2793 12.5968 18.41 12.623 18.542 12.623C18.6741 12.623 18.8048 12.5968 18.9267 12.5461C19.0485 12.4953 19.1591 12.4209 19.2521 12.3272L23.1225 8.44673C23.6844 7.88416 24 7.12158 24 6.32649C24 5.5314 23.6844 4.76882 23.1225 4.20626Z" fill="black"/>
</svg>
