<svg width="39" height="38" viewBox="0 0 39 38" fill="none" xmlns="http://www.w3.org/2000/svg">
<path d="M29.8644 19.7396V9.89562C29.8644 6.99397 29.8644 5.54314 29.295 4.43485C28.7941 3.45998 27.9948 2.66738 27.0117 2.17066C25.8941 1.60596 24.4311 1.60596 21.5051 1.60596H10.3593C7.43329 1.60596 5.97027 1.60596 4.85267 2.17066C3.8696 2.66738 3.07034 3.45998 2.56944 4.43485C2 5.54314 2 6.99397 2 9.89562V27.8566C2 30.7582 2 32.209 2.56944 33.3173C3.07034 34.2922 3.8696 35.0848 4.85267 35.5815C5.97027 36.1462 7.4332 36.1462 10.3591 36.1462H16.803M19.4153 17.1491H8.9661M12.4492 24.0571H8.9661M22.8983 10.241H8.9661M21.9792 31.7876L26.3814 36.1462L37.3626 25.2085" stroke="white" stroke-width="2.46716" stroke-linecap="round" stroke-linejoin="round"/>
</svg>
