<svg width="18" height="10" viewBox="0 0 18 10" fill="none" xmlns="http://www.w3.org/2000/svg">
<path d="M0.641331 6.1508L3.46972 9.00843C3.53766 9.07693 3.61849 9.1313 3.70755 9.1684C3.79662 9.20551 3.89214 9.22461 3.98862 9.22461C4.0851 9.22461 4.18063 9.20551 4.26969 9.1684C4.35875 9.1313 4.43958 9.07693 4.50753 9.00843C4.64365 8.87149 4.72005 8.68626 4.72005 8.49318C4.72005 8.3001 4.64365 8.11486 4.50753 7.97793L1.9057 5.35418L16.8077 5.35418C17.0016 5.35418 17.1875 5.27718 17.3245 5.14012C17.4616 5.00306 17.5386 4.81716 17.5386 4.62333C17.5386 4.42949 17.4616 4.2436 17.3245 4.10654C17.1875 3.96948 17.0016 3.89248 16.8077 3.89248L1.86185 3.89248L4.50753 1.25411C4.57603 1.18617 4.6304 1.10534 4.6675 1.01628C4.70461 0.927215 4.72371 0.831689 4.72371 0.735208C4.72371 0.638727 4.70461 0.5432 4.6675 0.45414C4.6304 0.365079 4.57603 0.284245 4.50753 0.216304C4.43958 0.147802 4.35875 0.0934315 4.26969 0.0563269C4.18063 0.0192232 4.0851 0.000120163 3.98862 0.000120163C3.89214 0.000120163 3.79662 0.0192232 3.70755 0.0563269C3.61849 0.0934315 3.53766 0.147802 3.46972 0.216304L0.641331 3.052C0.230738 3.46311 0.000112534 4.02037 0.000112534 4.6014C0.000112534 5.18243 0.230738 5.7397 0.641331 6.1508Z" fill="black"/>
</svg>
