<svg width="77" height="67" viewBox="0 0 77 67" fill="none" xmlns="http://www.w3.org/2000/svg">
<path fill-rule="evenodd" clip-rule="evenodd" d="M18.3947 0.395336C14.8711 0.846019 12.4589 1.69075 10.3133 3.22492C9.2411 3.99156 8.78718 4.52645 8.78718 5.02303C8.78718 5.47878 9.40768 6.11397 9.85273 6.11397C10.0399 6.11397 10.6692 5.75256 11.2517 5.31082C13.683 3.46651 16.8868 2.53951 20.8336 2.53846C28.2595 2.53638 32.94 5.51589 34.3706 11.1561C34.7534 12.6651 35.0041 15.4363 34.8794 16.7788L34.7767 17.8839L34.2985 17.5161C33.632 17.0035 32.6843 16.6955 31.7739 16.6955H31.0007L30.9202 15.5114C30.7833 13.4985 29.7491 11.822 28.046 10.853L27.2766 10.4151L27.6632 9.62018C28.0075 8.91271 28.0295 8.7756 27.8644 8.3735C27.645 7.83965 27.0684 7.59032 26.5011 7.78391C26.2191 7.88019 25.8916 8.29719 25.3367 9.26637C22.5001 14.2224 18.0848 18.3532 12.778 21.016C10.9527 21.932 11.0043 21.8588 11.0043 23.5274C11.0043 24.3324 11.1078 25.3719 11.2432 25.9261C11.7522 28.0111 13.3098 30.3182 14.9801 31.461L15.7265 31.9716L15.7303 34.3219L15.7342 36.6722L12.5932 36.6319L9.45232 36.5917L8.90764 33.3129C7.81519 26.7357 7.13778 20.2841 7.10792 16.1739C7.08664 13.2477 7.22322 12.0755 7.77484 10.4499C8.12263 9.42464 8.12366 8.76263 7.77779 8.44712C7.41921 8.11984 6.53251 8.12804 6.23615 8.46128C5.92132 8.81524 5.46548 10.2312 5.14458 11.8518C4.4861 15.1773 5.11147 23.8398 6.72037 33.6784C6.96765 35.1908 7.14074 36.5054 7.10482 36.5996C7.06905 36.6938 6.66391 36.8099 6.20467 36.8577C3.69118 37.1193 1.32329 39.4261 0.810983 42.112C0.691553 42.7382 0.654897 45.792 0.686676 52.464L0.73161 61.9277L1.12892 62.7824C1.6764 63.9604 2.16816 64.5698 3.06758 65.1849C4.19343 65.9548 5.30614 66.2298 6.9205 66.1369C8.14037 66.0669 8.35395 66.0049 9.55504 65.3728L10.8623 64.6849H25.5567C34.0954 64.6849 40.4003 64.6276 40.6073 64.5484C41.3181 64.2759 41.319 64.2595 41.2737 52.7549L41.2312 41.957L40.8942 41.1169C40.709 40.6549 40.3028 39.9201 39.9918 39.4843L39.4264 38.6918L41.7881 35.5181L44.1499 32.3442H49.8961H55.6425V33.1539C55.6425 33.8413 55.5964 33.9782 55.3371 34.0612C54.8613 34.2135 54.0274 35.0174 53.7247 35.6158C53.3179 36.4197 53.2242 37.1621 53.4237 38.0008C53.6724 39.0454 54.284 39.8299 55.2146 40.2975C56.6163 41.0018 58.0899 40.7625 59.1974 39.6505C60.7753 38.0666 60.4902 35.503 58.5987 34.2672C57.8811 33.7983 57.8596 33.7636 57.8596 33.0696V32.3546L65.287 32.3122C71.9592 32.274 72.7612 32.2439 73.1748 32.0154C74.156 31.4737 74.1186 31.9916 74.1186 18.9458V7.15722L74.525 7.15498C75.1118 7.15185 75.6132 6.85274 75.9987 6.27612C76.2915 5.83811 76.3357 5.58385 76.3354 4.34075C76.3353 2.64711 76.0926 2.00522 75.301 1.60461C74.8146 1.3584 73.6876 1.34514 56.4554 1.38106C36.0602 1.42368 37.7118 1.33023 37.1623 2.47244C36.824 3.17559 36.7697 5.09844 37.0638 5.95972C37.2714 6.56704 38.0611 7.15722 38.6664 7.15722H39.0879V18.8613C39.0879 28.4706 39.1244 30.6534 39.2918 31.0571C39.5322 31.6375 40.1822 32.1943 40.6229 32.1974C41.4202 32.2032 41.3323 32.4095 39.4629 34.9185L37.6159 37.3975L36.7768 37.1063C36.3153 36.9463 35.754 36.8153 35.5294 36.8153C34.787 36.8153 34.6766 36.7051 34.8102 36.0983C35.03 35.1006 35.9715 28.7381 36.2701 26.2337C37.0365 19.803 37.2619 14.6795 36.8829 12.2989C36.0438 7.02786 33.0241 3.20808 28.3471 1.50177C26.1887 0.714271 24.5242 0.439003 21.5726 0.381177C20.1093 0.352562 18.6793 0.358971 18.3947 0.395336ZM39.0879 4.25103V4.92169H56.6033H74.1186V4.25103V3.58037H56.6033H39.0879V4.25103ZM41.3411 18.5957L41.379 30.0341L42.2218 30.0786L43.0646 30.1231L44.779 27.8201C45.9149 26.2944 46.6123 25.4871 46.8452 25.4281C47.6401 25.2269 48.3944 25.94 48.2024 26.7113C48.1544 26.904 47.6471 27.6918 47.0751 28.462C46.503 29.2322 46.0349 29.9178 46.0349 29.9854C46.0349 30.0532 51.8549 30.1087 58.9682 30.1087H71.9014V18.6329V7.15722H56.6024H41.3033L41.3411 18.5957ZM25.1939 13.5222C24.1489 14.9855 21.4811 17.7897 19.9547 19.0295C18.3924 20.2984 16.2849 21.7023 14.5913 22.6024L13.2268 23.3276L13.2241 24.0943C13.2182 25.7795 14.2673 27.9608 15.6734 29.1872C16.5343 29.938 17.87 30.6097 18.9563 30.8382C20.0684 31.072 22.1742 31.0421 23.1792 30.7781C25.9062 30.0619 28.0123 27.8927 28.5751 25.2205C28.6781 24.7307 28.7407 22.6638 28.7399 19.7807C28.7385 15.203 28.7331 15.119 28.3891 14.3854C27.9795 13.5119 27.4051 12.9273 26.6398 12.6049C26.3375 12.4776 26.0715 12.3758 26.0486 12.3788C26.0256 12.3817 25.6411 12.8963 25.1939 13.5222ZM30.9585 20.7403V22.5496L31.8084 22.4618C32.5378 22.3865 32.7263 22.2994 33.1386 21.847C33.4929 21.4582 33.619 21.1806 33.619 20.7887C33.619 19.6339 32.8668 18.931 31.631 18.931H30.9585V20.7403ZM33.5232 24.3079C33.1861 24.4644 32.4602 24.6431 31.9101 24.7051L30.91 24.8179L30.7205 25.7555C30.4796 26.9479 29.9531 28.1067 29.1122 29.2948C28.4703 30.202 27.2426 31.3753 26.5612 31.733C26.2375 31.9029 26.2286 31.9706 26.2286 34.2869V36.6662H29.3227C32.1411 36.6662 32.4235 36.643 32.4945 36.4054C32.6571 35.8608 33.6167 29.6291 33.9115 27.2025C34.0809 25.809 34.2414 24.5181 34.2683 24.3335C34.3257 23.9393 34.3179 23.9391 33.5232 24.3079ZM17.9513 24.8924C17.5073 25.3401 17.5677 26.0312 18.0942 26.5272C18.8139 27.205 19.5521 27.4848 20.787 27.5478C21.7646 27.5977 22.0375 27.5529 22.7446 27.2265C24.2101 26.55 24.7031 25.6176 23.965 24.9184C23.5148 24.4921 22.9385 24.5085 22.2695 24.9669C21.8673 25.2425 21.5318 25.3395 20.9814 25.3395C20.4309 25.3395 20.0954 25.2425 19.6932 24.9669C19.0356 24.5164 18.3532 24.4872 17.9513 24.8924ZM17.9513 34.7966V36.6662H20.9814H24.0115V34.8015V32.9368L23.3833 33.0503C22.5567 33.1997 19.2115 33.1964 18.5056 33.0454L17.9513 32.9268V34.7966ZM55.9267 36.3567C55.4656 36.8217 55.3895 37.2317 55.6666 37.7566C55.9233 38.2426 56.2522 38.4447 56.7947 38.4499C58.0839 38.4624 58.4699 36.7147 57.3151 36.0944C56.7945 35.8149 56.3879 35.8917 55.9267 36.3567ZM6.4617 39.0588C4.94297 39.3611 3.70877 40.3912 3.18981 41.7902C2.8806 42.6233 2.87483 42.8087 2.87809 51.9853C2.88119 60.7313 2.89878 61.3699 3.15257 61.9277C3.49785 62.6866 4.11761 63.3115 4.87025 63.6597C5.55224 63.9752 7.00919 64.0296 7.75473 63.7676C8.02404 63.6729 10.5154 62.2732 13.2911 60.657C16.0668 59.0408 18.476 57.6743 18.6448 57.6203C19.0946 57.4763 19.6783 57.8027 19.8892 58.3162C20.2007 59.0744 19.878 59.398 17.3252 60.8872C16.0493 61.6314 14.9586 62.2873 14.9017 62.3449C14.8447 62.4023 18.7335 62.4493 23.5434 62.4493H32.2887V59.0961C32.2887 55.9414 32.3063 55.725 32.5844 55.4447C33.0245 55.0009 33.8156 55.0472 34.1995 55.5393C34.4883 55.9094 34.5059 56.1197 34.5059 59.1907V62.4493H36.8018H39.0978L39.0559 52.348L39.014 42.2467L38.6416 41.5172C38.4367 41.1158 38.1983 40.7638 38.1117 40.7346C38.0249 40.7055 37.0686 41.8577 35.9863 43.2952L34.0185 45.9087L34.2992 46.5365C34.4926 46.9692 34.578 47.4926 34.574 48.2208C34.5668 49.5375 34.0536 50.6961 33.1091 51.5271C32.1364 52.3833 23.9297 57.0841 23.408 57.0841C22.5879 57.0841 22.083 56.0668 22.5703 55.3965C22.672 55.2568 23.3205 54.8137 24.0115 54.4119C24.7025 54.0101 25.2536 53.6162 25.2365 53.5366C25.212 53.4238 23.1845 49.8271 23.0568 49.67C23.0404 49.6497 19.8597 51.4772 15.9887 53.7312C11.0764 56.5914 8.81748 57.8293 8.51004 57.8293C8.21028 57.8293 7.97172 57.7038 7.76331 57.4365C7.47685 57.0693 7.4569 56.8526 7.4569 54.0998C7.4569 51.4453 7.4841 51.1218 7.73345 50.8113C8.11775 50.3328 9.01318 50.3328 9.39748 50.8113C9.63427 51.1063 9.67403 51.42 9.67403 52.9968V54.838L12.002 53.4807C22.7514 47.2132 27.6173 44.3919 28.1681 44.1073C29.1193 43.6156 30.6457 43.5478 31.6906 43.9506C32.1338 44.1216 32.5329 44.2104 32.5774 44.1481C32.6219 44.0858 33.4492 42.9789 34.416 41.6881C35.3827 40.3975 36.1335 39.301 36.0846 39.2517C35.8774 39.0427 34.5932 38.9143 32.6504 38.9083L30.5733 38.9018L29.9219 39.8332C28.5319 41.8206 27.2191 42.8956 25.6892 43.2985C24.144 43.7055 22.6243 43.1129 21.6792 41.7351C21.4581 41.4126 21.2437 41.1474 21.2031 41.1461C21.1625 41.1447 20.9424 41.41 20.7139 41.7357C20.1717 42.5083 19.1951 43.1752 18.3146 43.3742C16.4311 43.7998 14.1548 42.4029 12.4073 39.749L11.8493 38.9018L9.46828 38.9181C8.15884 38.9271 6.8058 38.9904 6.4617 39.0588ZM14.6995 39.0796C14.6995 39.4153 16.2724 40.7941 16.9554 41.0571C17.6113 41.3097 17.6586 41.3091 18.2008 41.0422C18.5857 40.8526 18.9164 40.5072 19.2446 39.9516C19.5088 39.5045 19.725 39.0852 19.725 39.0201C19.725 38.955 18.5943 38.9018 17.2123 38.9018C15.3642 38.9018 14.6995 38.9489 14.6995 39.0796ZM22.6812 38.9822C22.6812 39.0265 22.8218 39.345 22.9935 39.6902C23.6889 41.0874 24.4725 41.4902 25.5553 41.0072C26.215 40.713 27.7067 39.3614 27.7067 39.0579C27.7067 38.9553 26.8467 38.9018 25.1939 38.9018C23.8119 38.9018 22.6812 38.938 22.6812 38.9822ZM27.3372 47.1169C26.199 47.7804 25.208 48.3798 25.1348 48.4488C25.0024 48.5737 27.09 52.4544 27.2931 52.4607C27.5815 52.4698 31.5308 50.0082 31.8769 49.6035C33.1162 48.1555 32.003 45.9024 30.0515 45.9085C29.5154 45.9101 29.0569 46.1143 27.3372 47.1169Z" fill="white"/>
</svg>
