<svg width="39" height="36" viewBox="0 0 39 36" fill="none" xmlns="http://www.w3.org/2000/svg">
<path d="M32.7846 33.8287C31.919 34.6745 30.7676 35.1648 29.5579 35.2028C28.3483 35.2408 27.1684 34.8237 26.2513 34.034L24.6056 32.6112C24.4461 32.4735 24.3154 32.3057 24.2208 32.1174C24.1262 31.9291 24.0696 31.724 24.0542 31.5138C24.0233 31.0894 24.1621 30.67 24.4404 30.3479C24.5781 30.1885 24.746 30.0577 24.9343 29.9631C25.1226 29.8685 25.3276 29.8119 25.5378 29.7966C25.9623 29.7656 26.3816 29.9045 26.7037 30.1827L28.351 31.6071C28.6545 31.8726 29.0468 32.0141 29.4499 32.0034C29.8529 31.9927 30.2372 31.8306 30.5261 31.5494C32.7822 29.3149 34.3243 26.4612 34.9572 23.3496C35.5901 20.238 35.2852 17.0085 34.0812 14.0703C32.8772 11.1321 30.8282 8.6174 28.1938 6.84465C25.5595 5.0719 22.4582 4.12091 19.2829 4.11213C16.1076 4.10336 13.0011 5.0372 10.357 6.79536C7.71287 8.55352 5.65003 11.0569 4.4298 13.9884C3.20957 16.9199 2.88685 20.1476 3.50251 23.2626C4.11818 26.3777 5.64453 29.2399 7.88822 31.4868C8.17486 31.7894 8.56656 31.9707 8.98276 31.9934C9.39897 32.0161 9.80804 31.8784 10.1259 31.6087L11.7732 30.1827C12.0953 29.9045 12.5146 29.7656 12.9391 29.7966C13.3635 29.8276 13.7583 30.0259 14.0365 30.3479C14.3148 30.67 14.4536 31.0894 14.4227 31.5138C14.3917 31.9383 14.1934 32.333 13.8713 32.6112L12.2256 34.0356C11.2903 34.828 10.091 35.2391 8.86635 35.1871C7.64169 35.1351 6.48154 34.6238 5.61689 33.7549C2.79763 30.927 0.927666 27.2923 0.266057 23.3543C-0.395552 19.4163 0.183951 15.37 1.92428 11.7761C3.66461 8.18208 6.47961 5.21831 9.97928 3.29537C13.479 1.37243 17.49 0.585501 21.4568 1.04361C25.0582 1.45943 28.4688 2.88432 31.2956 5.1541C34.1224 7.42388 36.2504 10.4462 37.4343 13.8727C38.6182 17.2992 38.8099 20.9905 37.9872 24.5212C37.1646 28.0519 35.3611 31.2784 32.7846 33.8287ZM19.2385 16.9606C18.9579 16.9606 18.6786 16.9973 18.4076 17.0696L12.3523 11.0144C12.0498 10.7222 11.6446 10.5605 11.224 10.5642C10.8034 10.5678 10.4011 10.7365 10.1037 11.0339C9.80629 11.3313 9.6376 11.7336 9.63394 12.1542C9.63029 12.5748 9.79197 12.98 10.0842 13.2825L16.1394 19.3378C15.9658 19.9852 15.9994 20.6708 16.2354 21.2982C16.4714 21.9256 16.898 22.4633 17.4553 22.8358C18.0126 23.2083 18.6725 23.3969 19.3425 23.375C20.0125 23.3532 20.6588 23.1221 21.1906 22.7141C21.7225 22.3061 22.1132 21.7418 22.3079 21.1004C22.5026 20.4589 22.4914 19.7726 22.276 19.1379C22.0607 18.5031 21.6519 17.9517 21.107 17.5612C20.5622 17.1707 19.9088 16.9606 19.2385 16.9606Z" fill="white"/>
</svg>
