<svg width="79" height="74" viewBox="0 0 79 74" fill="none" xmlns="http://www.w3.org/2000/svg">
<path fill-rule="evenodd" clip-rule="evenodd" d="M36.0482 0.291175C34.4973 0.575985 32.5689 1.29952 31.098 2.14885C29.6519 2.98366 29.5451 3.08334 29.421 3.71276C29.3427 4.10946 29.3988 4.27821 29.7155 4.59934C30.2596 5.15103 30.6499 5.10034 32.0376 4.29768C34.2422 3.0226 35.8923 2.5304 38.3505 2.41497C44.7911 2.11208 50.2359 6.08798 52.162 12.5005C52.5351 13.7423 52.5767 14.1155 52.5755 16.1998C52.574 18.7658 52.3442 19.9598 51.48 21.8924C51.0136 22.9352 49.7939 24.9311 49.6229 24.9311C49.5716 24.9311 49.1936 24.392 48.783 23.7334C47.9685 22.4268 45.8785 20.1293 44.7193 19.2665L43.9881 18.7221L44.2993 18.279C46.0624 15.7686 45.7341 12.1674 43.5383 9.93115C40.3638 6.69794 35.053 7.62407 33.1272 11.7468C32.6644 12.7374 32.6352 12.9021 32.6352 14.5218C32.6352 16.2364 32.6378 16.2489 33.2678 17.4992L33.9006 18.755L33.0392 19.4272C31.77 20.4181 30.1192 22.244 29.202 23.6717C28.2688 25.1247 28.3208 25.1302 27.2959 23.4628C24.4909 18.8998 24.6392 12.9387 27.6702 8.41329C28.0574 7.83502 28.2915 7.3099 28.2915 7.01937C28.2915 6.1005 27.1849 5.5944 26.4855 6.19353C26.3119 6.3422 25.7963 7.07284 25.3397 7.81694C22.5698 12.3312 22.2358 18.1777 24.4713 23.015C25.2762 24.7566 26.1525 26.0247 27.5938 27.5336C30.0436 30.0986 33.1145 31.7021 36.6327 32.2534L37.8171 32.439L37.8562 36.9141L37.8953 41.3892L33.3216 44.3793L28.748 47.3694L27.6577 46.1854C24.4528 42.7058 20.6106 41.0068 15.9465 41.0068C11.6198 41.0068 8.00281 42.4683 4.94702 45.4511C2.71317 47.6318 1.24091 50.1562 0.439545 53.1794C0.0882444 54.5051 0.0423695 54.9664 0.0455701 57.1519C0.0487707 59.3138 0.0987606 59.813 0.443203 61.1244C1.64113 65.6858 4.67269 69.5183 8.70708 71.5716C10.064 72.2623 11.4672 72.7745 12.4281 72.9303C12.9645 73.0173 13.122 72.9778 13.4381 72.6766C13.8876 72.2485 13.9405 71.457 13.5438 71.093C13.3959 70.9574 12.6929 70.6622 11.9816 70.4373C10.1044 69.8436 7.13118 68.146 7.11274 67.6571C7.10146 67.3591 8.45317 65.1871 9.20714 64.2919C10.1002 63.231 11.2825 62.1829 12.4411 61.4246C14.2872 60.2163 14.3908 59.8304 13.2089 58.5632C12.1994 57.481 11.8391 56.6427 11.8348 55.3664C11.8222 51.5326 16.5058 49.727 19.0475 52.5859C19.8442 53.4818 20.1113 54.1803 20.1147 55.3747C20.1183 56.6694 19.7352 57.5453 18.711 58.5838C17.5637 59.7471 17.6355 60.1873 19.131 61.1596C21.4003 62.6347 23.115 64.4378 24.2543 66.5466C24.8069 67.5696 24.8144 67.6044 24.5435 67.9079C24.0765 68.431 22.1045 69.6008 20.8702 70.0867C20.2278 70.3397 19.1486 70.6472 18.472 70.7699C17.7955 70.8928 17.0889 71.0267 16.9018 71.0675C16.7148 71.1085 16.4522 71.3567 16.3182 71.6191C16.1169 72.0141 16.1068 72.1745 16.2601 72.55C16.5227 73.1927 16.9042 73.3496 17.9081 73.2276C20.3822 72.9275 23.5698 71.6197 25.5482 70.093C27.5518 68.5469 29.441 66.1779 30.4239 63.9787C31.3647 61.8739 31.9475 59.2624 31.9475 57.1519C31.9475 55.0149 31.2368 51.9146 30.3267 50.0806L29.9618 49.3455L31.908 48.0633C37.8312 44.1617 38.9632 43.4589 39.1467 43.5694C39.3183 43.6727 47.8157 49.197 47.9153 49.2701C47.937 49.2858 47.7166 49.8213 47.4256 50.4598C46.0528 53.473 45.6551 57.1157 46.3393 60.4137C47.5764 66.3766 52.0903 71.1904 57.9458 72.7911C59.2912 73.1589 59.7379 73.2056 61.9738 73.2114C64.254 73.2174 64.6275 73.179 65.9795 72.7982C70.6536 71.4819 74.3169 68.4231 76.387 64.1082C77.0742 62.6759 77.8242 60.0885 77.8242 59.1502C77.8242 58.8686 77.8928 58.5952 77.9766 58.5427C78.0625 58.4889 78.128 57.7583 78.1268 56.8723C78.1251 55.7984 78.0774 55.3711 77.9766 55.5292C77.8663 55.7025 77.8284 55.6196 77.8265 55.2013C77.8227 54.269 77.1206 51.7602 76.4686 50.3496C75.6064 48.4841 74.6349 47.0639 73.2552 45.6517C71.7265 44.0869 70.8855 43.5666 70.2488 43.7917C69.8102 43.9467 69.4418 44.4736 69.4418 44.9455C69.4418 45.0662 70.2828 46.0191 71.3108 47.0631C73.3901 49.1752 74.2007 50.4234 74.9382 52.6485C76.3331 56.8572 75.6381 61.6829 73.1366 65.1599L72.6007 65.9048L71.9948 64.9281C70.7807 62.9714 68.965 60.9887 67.3134 59.8156C66.9725 59.5734 66.9647 59.5374 67.1971 59.277C67.624 58.7988 68.2016 57.3477 68.3507 56.3792C68.7825 53.5725 67.2803 50.7119 64.7187 49.4624C63.8862 49.0563 63.5021 48.9681 62.3325 48.9135C60.1738 48.8131 58.7267 49.4008 57.2598 50.9734C56.1721 52.1395 55.6987 53.2613 55.606 54.8913C55.514 56.5099 55.7381 57.5537 56.4269 58.7135L56.9623 59.615L56.5366 59.9287C54.7292 61.2614 52.8419 63.3438 51.8876 65.0584C51.635 65.512 51.4033 65.8832 51.3726 65.8832C51.2278 65.8832 50.0068 63.8915 49.5432 62.8992C48.6789 61.0497 48.3701 59.6013 48.3505 57.3064C48.338 55.8405 48.4097 54.9664 48.6163 54.0727C49.8236 48.8488 53.8044 44.816 59.0227 43.5304C60.6367 43.1328 63.5085 43.181 65.3071 43.6358C66.5831 43.9585 66.7766 43.9733 67.1238 43.7747C68.048 43.2462 67.8433 42.0073 66.7727 41.6502C64.7215 40.966 61.3288 40.735 59.2304 41.1368C55.7762 41.7979 52.9482 43.3556 50.4705 45.9617L49.1582 47.3421L44.7068 44.4284L40.2556 41.5148L40.2152 36.9541L40.175 32.3933L41.0535 32.2983C46.0465 31.7583 50.9159 28.2326 53.2557 23.463C58.0005 13.791 52.2117 2.13139 41.7463 0.280975C40.1578 2.83718e-05 37.6095 0.00466446 36.0482 0.291175ZM37.7672 10.4702C35.9002 11.0872 34.8451 12.5954 34.8451 14.6471C34.8451 15.8431 35.3357 16.9061 36.2965 17.7929C36.8238 18.2795 36.9788 18.5311 36.9788 18.9006C36.9788 19.4569 36.71 19.7388 35.3128 20.6476C33.4109 21.8847 31.5133 23.9788 30.5612 25.8915C30.3187 26.3783 30.1204 26.8034 30.1204 26.836C30.1204 26.9777 31.9647 28.1839 32.94 28.6798C36.1514 30.3129 39.8455 30.5698 43.2903 29.3996C44.7117 28.9167 46.43 28.0079 47.3232 27.2664C47.9598 26.738 47.9307 26.617 46.7299 24.7969C45.6687 23.188 43.8613 21.3895 42.3541 20.4425C40.6971 19.4014 40.5882 18.9553 41.7001 17.7632C42.6928 16.6989 43.1276 15.702 43.1302 14.4833C43.135 12.2844 41.5037 10.5116 39.3049 10.3263C38.7666 10.2809 38.1714 10.3366 37.7672 10.4702ZM12.9745 43.5658C11.7563 43.8372 9.91812 44.6027 8.67538 45.356C6.71023 46.5473 4.44422 49.1851 3.44382 51.4458C2.43289 53.7303 2.00905 56.7445 2.36995 59.0822C2.71973 61.3475 3.88443 64.1694 5.02444 65.513L5.36919 65.9195L5.94027 64.9294C6.72288 63.5724 8.382 61.6489 9.64104 60.6385C10.2171 60.1763 10.7458 59.7495 10.8161 59.69C10.8864 59.6305 10.7657 59.3086 10.5477 58.9748C9.23289 56.9601 9.20485 53.9873 10.4816 51.9482C10.9822 51.1484 11.9285 50.2112 12.7459 49.7052C14.3492 48.7129 16.9379 48.6097 18.7011 49.468C22.2592 51.2001 23.5209 55.7584 21.3428 59.0128C21.1328 59.3266 20.9814 59.5965 21.0066 59.6125C21.0316 59.6285 21.5079 60.0029 22.0648 60.4446C23.4373 61.5331 24.6664 62.9088 25.7219 64.5382L26.6027 65.8978L27.0848 65.2336C27.8081 64.2375 28.8573 61.9464 29.229 60.5517C29.6992 58.7873 29.6987 55.5139 29.2282 53.7521C28.859 52.3693 27.9483 50.339 27.2002 49.2305C25.5549 46.7925 22.882 44.8214 19.9091 43.8536C18.7843 43.4875 18.3123 43.425 16.3275 43.3799C14.6698 43.3422 13.7481 43.3933 12.9745 43.5658ZM60.2973 51.5235C58.8048 52.2078 57.8629 53.6592 57.8603 55.2795C57.858 56.6473 58.1194 57.303 59.1071 58.4082C60.3372 59.7845 60.2889 60.2311 58.807 61.1882C56.5508 62.6452 54.6681 64.631 53.5797 66.7014L53.0868 67.639L53.682 68.159C54.4751 68.852 57.3668 70.2711 58.697 70.6202C60.2022 71.0153 63.7696 71.0131 65.2256 70.6161C67.1767 70.0844 69.1484 69.11 70.3376 68.0899L70.8525 67.6484L70.5067 66.9589C69.5061 64.9638 67.3907 62.586 65.7003 61.5561C63.7172 60.348 63.532 59.8069 64.6976 58.6251C65.7046 57.6039 66.1254 56.6824 66.1342 55.4789C66.1467 53.774 65.2361 52.296 63.7265 51.5711C62.7305 51.093 61.2803 51.0727 60.2973 51.5235ZM0 57.0746C0 57.967 0.0251474 58.3321 0.0559338 57.8859C0.0867203 57.4398 0.0867203 56.7094 0.0559338 56.2633C0.0251474 55.8171 0 56.1821 0 57.0746Z" fill="white"/>
</svg>
