<svg width="38" height="26" viewBox="0 0 38 26" fill="none" xmlns="http://www.w3.org/2000/svg">
<path fill-rule="evenodd" clip-rule="evenodd" d="M12.0413 0.0749447C9.71431 0.161159 6.35306 0.427642 5.16126 0.620225C2.53129 1.04528 1.25433 2.28672 0.780216 4.8789C-0.136219 9.88971 0.056648 19.4414 1.1322 22.3137C1.52101 23.3522 2.45397 24.3452 3.45543 24.7867C4.981 25.459 8.14826 25.7094 16.5934 25.8252C25.2961 25.9444 31.6281 25.6213 33.6342 24.9553C34.488 24.6719 35.7256 23.563 36.138 22.7119C36.5233 21.9165 36.9047 19.6989 37.1229 16.9855C37.3112 14.6441 37.2221 8.75941 36.9705 6.90831C36.5516 3.82767 36.1533 2.78203 35.006 1.75123C33.7631 0.634641 32.3984 0.384254 26.1177 0.120431C23.2415 -0.00035333 14.807 -0.0276453 12.0413 0.0749447ZM15.1227 12.9265C15.1227 15.9672 15.1493 18.4549 15.1818 18.4549C15.3533 18.4549 24.6746 13.0263 24.6746 12.9265C24.6746 12.8268 15.3533 7.39816 15.1818 7.39816C15.1493 7.39816 15.1227 9.88594 15.1227 12.9265Z" fill="white"/>
</svg>
